<svg aria-hidden="true" style="position: absolute; width: 0; height: 0; overflow: hidden;" version="1.1" xmlns="http://www.w3.org/2000/svg" xmlns:xlink="http://www.w3.org/1999/xlink">
<defs>
<symbol id="icon-logo" viewBox="0 0 32 32">
<path d="M15.076 3.925c-0.427 0.284-0.839 0.569-0.896 0.626-0.128 0.114 0.171 0.711 0.356 0.711 0.071 0 0.427-0.228 0.811-0.498 0.37-0.27 0.782-0.498 0.896-0.498s3.214 2.105 6.884 4.665c6.215 4.352 6.67 4.708 6.713 5.12l0.043 0.455h-1.109c-0.683 0-1.195 0.071-1.294 0.171-0.128 0.128-0.171 1.166-0.171 3.769v3.598h-5.973v0.853h3.172c2.901 0 3.2-0.028 3.413-0.256s0.242-0.711 0.242-3.769v-3.513h1.124c1.365 0 1.465-0.085 1.408-1.294l-0.043-0.896-6.969-4.878c-5.433-3.797-7.054-4.878-7.396-4.878-0.256 0-0.74 0.213-1.209 0.512zM17.294 4.153c0.384 0.256 0.768 0.512 0.839 0.583 0.085 0.057 0.754 0.54 1.493 1.052 0.74 0.526 1.38 0.996 1.394 1.067 0.028 0.057 0.114 0.114 0.171 0.114 0.071 0 0.782 0.469 1.579 1.024 0.796 0.569 1.906 1.351 2.46 1.735s1.038 0.754 1.052 0.811c0.028 0.071 0.114 0.128 0.199 0.128s0.782 0.469 1.564 1.024c0.782 0.569 1.536 1.109 1.678 1.18 0.597 0.341 0.668 0.484 0.654 1.308l-0.014 0.825-1.095 0.043c-0.683 0.028-1.138 0.114-1.237 0.228-0.142 0.171-0.242 2.546-0.299 6.869v0.469h-3.058c-1.948 0-3.058-0.057-3.058-0.142s1.038-0.142 2.83-0.142c2.176 0 2.859-0.043 2.987-0.185 0.1-0.128 0.171-1.408 0.185-3.74l0.043-3.541 1.038-0.014c1.166-0.028 1.465-0.199 1.422-0.796-0.043-0.455-0.327-0.825-0.967-1.195-0.228-0.142-0.427-0.313-0.427-0.37s-0.085-0.114-0.199-0.114c-0.114 0-0.228-0.057-0.256-0.114-0.014-0.071-0.398-0.356-0.825-0.64s-1.038-0.697-1.351-0.924c-0.469-0.341-2.020-1.436-4.964-3.484-0.242-0.171-0.469-0.341-0.512-0.398-0.043-0.043-0.327-0.228-0.64-0.412s-0.597-0.384-0.64-0.427c-0.043-0.057-0.469-0.37-0.953-0.697-0.498-0.341-0.896-0.668-0.896-0.74s-0.043-0.114-0.1-0.1c-0.071 0.014-0.313-0.071-0.555-0.213-0.484-0.256-0.953-0.228-1.323 0.085-0.128 0.1-0.398 0.299-0.612 0.427-0.327 0.199-0.398 0.213-0.398 0.043 0-0.199 0.811-0.782 1.351-0.953 0.526-0.185 0.725-0.128 1.436 0.327zM8.875 4.551c-1.081 0.356-1.934 1.138-2.432 2.233-0.299 0.654-0.356 0.939-0.299 1.792 0.028 0.64 0.156 1.237 0.327 1.593 0.27 0.54 0.327 0.569 0.981 0.612l0.697 0.043-0.37-0.427c-0.512-0.612-0.711-1.337-0.64-2.29 0.071-0.996 0.484-1.678 1.365-2.276 1.877-1.252 4.395-0.128 4.793 2.148 0.128 0.697-0.185 1.806-0.668 2.347l-0.427 0.484h1.408l0.341-0.74c0.441-0.939 0.455-2.304 0.028-3.257-0.882-1.977-3.044-2.944-5.106-2.261zM11.762 4.992c0.796 0.356 1.692 1.308 1.948 2.091 0.412 1.18 0.199 3.015-0.37 3.314-0.313 0.171-0.313 0.156 0.028-0.654 1.223-2.873-1.906-5.845-4.636-4.395-0.924 0.484-1.266 0.811-1.636 1.607-0.398 0.853-0.398 2.19 0 2.987 0.27 0.512 0.27 0.555 0.043 0.526-0.171-0.028-0.327-0.327-0.526-0.996-0.27-0.939-0.27-0.981-0.014-1.977 0.284-1.152 0.626-1.593 1.735-2.318 1.038-0.668 2.19-0.725 3.428-0.185zM3.413 11.932l-1.778 1.252-0.043 0.882c-0.057 1.209 0.043 1.294 1.408 1.294h1.124v5.945c0 5.589 0.014 5.973 0.256 6.187s1.095 0.242 9.244 0.242h8.988v-0.853h-17.636v-6.016c0-4.494-0.043-6.059-0.171-6.187-0.1-0.1-0.612-0.171-1.294-0.171h-1.109l0.043-0.455c0.043-0.398 0.228-0.583 1.707-1.579 1.636-1.124 1.65-1.138 1.436-1.479-0.114-0.171-0.256-0.327-0.313-0.327-0.043 0-0.882 0.569-1.863 1.266zM5.262 11.236c-0.114 0.071-0.156 0.142-0.071 0.142 0.071 0-0.199 0.228-0.626 0.498-0.412 0.27-0.796 0.498-0.868 0.498s-0.142 0.057-0.171 0.114c-0.014 0.071-0.341 0.327-0.711 0.583-0.583 0.384-0.683 0.526-0.683 0.924 0 0.668 0.27 0.825 1.465 0.853l1.024 0.014 0.043 5.988c0.028 4.949 0.071 6.030 0.228 6.158s2.432 0.171 8.747 0.156c5.788 0 8.548 0.043 8.548 0.142s-2.844 0.128-8.86 0.114l-8.846-0.043-0.043-5.959c-0.014-3.996-0.085-6.016-0.185-6.144-0.1-0.114-0.569-0.199-1.237-0.228l-1.095-0.043-0.085-1.621 0.683-0.498c0.37-0.27 0.839-0.583 1.038-0.683s0.384-0.228 0.427-0.27c0.156-0.199 1.18-0.839 1.337-0.839 0.085 0 0.057 0.071-0.057 0.142z"></path>
<path d="M7.893 12.501c0.484 0.668 0.498 0.725 0.498 2.062v1.365h3.556v-1.323c0-1.266 0.014-1.337 0.498-2.062l0.512-0.74h-5.561l0.498 0.697zM12.288 12.26c-0.057 0.1-0.228 0.356-0.37 0.569-0.199 0.284-0.256 0.64-0.256 1.593v1.237l-2.916-0.085-0.071-1.28c-0.057-0.896-0.142-1.38-0.313-1.636-0.142-0.185-0.256-0.398-0.256-0.455 0-0.071 0.967-0.114 2.148-0.114 1.664 0 2.119 0.043 2.034 0.171zM8.718 17.351l0.313 0.711h1.152c0.796 0 1.18-0.057 1.237-0.185 0.043-0.085 0.171-0.412 0.299-0.711l0.228-0.526h-3.541l0.313 0.711zM11.321 17.337c-0.213 0.398-0.242 0.412-1.109 0.341-0.924-0.071-1.252-0.213-1.252-0.555 0-0.156 0.284-0.199 1.28-0.199h1.294l-0.213 0.412zM17.707 18.802c-0.043 0.114-0.057 0.967-0.043 1.906l0.043 1.692h0.711v-1.849c0-1.806 0-1.849-0.327-1.892-0.171-0.028-0.341 0.043-0.384 0.142zM18.19 20.551c0 0.825-0.071 1.493-0.142 1.493s-0.128-0.668-0.128-1.493c0-0.91 0.057-1.493 0.142-1.493s0.142 0.569 0.128 1.493zM9.671 20.665c0 1.28 0.057 1.948 0.171 2.062s0.896 0.171 2.56 0.171h2.389v-0.853h-4.267v-3.271h-0.853v1.892zM10.24 20.523c0 0.953 0.057 1.522 0.171 1.636s0.782 0.171 2.048 0.171c1.138 0 1.92 0.057 1.977 0.142 0.057 0.1-0.64 0.142-2.162 0.114l-2.247-0.043-0.043-1.749c-0.028-1.124 0.014-1.735 0.114-1.735 0.085 0 0.142 0.555 0.142 1.465z"></path>
<path d="M16.185 20.295c-1.508 1.579-0.384 4.309 1.764 4.309 1.579 0 2.674-1.067 2.674-2.574 0-0.626-0.37-1.479-0.839-1.892-0.242-0.213-0.327-0.228-0.512-0.085-0.284 0.242-0.27 0.327 0.142 0.939 0.868 1.28 0.071 2.759-1.508 2.759-0.469 0-0.668-0.085-1.067-0.484-0.626-0.626-0.668-1.479-0.114-2.304 0.27-0.384 0.341-0.612 0.242-0.754-0.213-0.341-0.398-0.327-0.782 0.085zM19.94 20.793c0.469 0.654 0.455 1.863-0.028 2.56-0.626 0.924-1.892 1.237-2.93 0.74-0.612-0.299-1.195-1.252-1.195-1.948 0-0.654 0.398-1.664 0.654-1.664s0.256 0.199-0.014 0.427c-0.114 0.1-0.284 0.412-0.37 0.697-0.142 0.455-0.114 0.626 0.142 1.209 0.668 1.451 2.375 1.678 3.47 0.455 0.512-0.569 0.498-1.849-0.028-2.418-0.327-0.341-0.37-0.512-0.171-0.512 0.071 0 0.284 0.199 0.469 0.455zM24.064 25.5l-0.882 0.412v2.816l0.939 0.427c1.18 0.526 1.337 0.54 1.337 0.028v-0.384l1.138 0.043 1.138 0.057v-0.882h-2.276v-1.422h2.276v-0.782l-1.138 0.043-1.138 0.057v-0.412c0-0.526-0.256-0.526-1.394 0zM25.173 25.657c0 0.1 0.1 0.27 0.213 0.37 0.199 0.171 0.199 0.213 0 0.427-0.256 0.284-0.284 1.436-0.043 1.678 0.1 0.1 0.583 0.185 1.109 0.199l0.924 0.028-0.981 0.071c-0.939 0.085-1.109 0.171-1.308 0.697-0.014 0.014-0.37-0.1-0.825-0.27l-0.796-0.313v-2.475l0.683-0.299c0.796-0.356 1.024-0.384 1.024-0.114z"></path>
</symbol>
<symbol id="icon-menu" viewBox="0 0 32 32">
<path  d="M1 10h30c0.552 0 1-0.448 1-1s-0.448-1-1-1h-30c-0.552 0-1 0.448-1 1s0.448 1 1 1zM31 15h-30c-0.552 0-1 0.448-1 1s0.448 1 1 1h30c0.552 0 1-0.448 1-1s-0.448-1-1-1zM31 22h-20c-0.552 0-1 0.448-1 1s0.448 1 1 1h20c0.552 0 1-0.448 1-1s-0.448-1-1-1z"></path>
</symbol>
<symbol id="icon-viber" viewBox="0 0 32 32">
<path fill="#665cac" style="fill: var(--color1, #665cac)" d="M19.207 0.501h-6.414c-5.904 0-10.69 4.786-10.69 10.69v4.811c0 4.384 2.639 8.15 6.414 9.8v5.701l4.811-4.811h5.88c5.904 0 10.69-4.786 10.69-10.69v-4.811c0-5.904-4.786-10.69-10.69-10.69z"></path>
<path fill="#523494" style="fill: var(--color2, #523494)" d="M10.655 29.365v-3.563c-3.775-1.65-6.414-5.416-6.414-9.8v-4.811c0-5.904 4.786-10.69 10.69-10.69h-2.138c-5.904 0-10.69 4.786-10.69 10.69v4.811c0 4.384 2.639 8.15 6.414 9.8v5.701l2.138-2.138z"></path>
<path fill="#fff" style="fill: var(--color3, #fff)" d="M23.064 17.383l-3.78-0.756-1.793 1.793c-3.033-1.285-4.637-2.889-6.047-6.047l1.793-1.793-0.756-3.78-2.603-0.481c-0.612 0.142-1.14 0.443-1.554 0.859l-0 0c-0.863 0.863-0.982 2.061-0.805 3.187 0.401 2.547 1.641 5.955 3.814 8.136 0.005 0.005 0.010 0.011 0.016 0.016s0.011 0.010 0.016 0.016c2.181 2.173 5.589 3.413 8.136 3.814 1.126 0.177 2.324 0.057 3.187-0.805 0.415-0.414 0.717-0.942 0.854-1.533l0.004-0.022-0.481-2.603z"></path>
<path fill="#e5e5e5" style="fill: var(--color4, #e5e5e5)" d="M20.507 21.338c-2.547-0.401-5.955-1.641-8.136-3.814-0.005-0.005-0.011-0.010-0.016-0.016s-0.010-0.011-0.016-0.016c-2.173-2.181-3.413-5.589-3.813-8.136-0.142-0.903-0.093-1.851 0.376-2.636-0.219 0.136-0.408 0.287-0.579 0.458l0-0c-0.863 0.863-0.982 2.061-0.805 3.187 0.401 2.547 1.641 5.955 3.814 8.136 0.005 0.005 0.010 0.011 0.016 0.016s0.011 0.010 0.016 0.016c2.181 2.173 5.589 3.413 8.136 3.814 1.126 0.177 2.324 0.057 3.187-0.805 0.17-0.171 0.321-0.36 0.45-0.566l0.008-0.013c-0.785 0.469-1.734 0.518-2.636 0.377z"></path>
<path fill="#000" style="fill: var(--color5, #000)" d="M27.2 3.358c-0.194-0.198-0.511-0.201-0.709-0.007-0.093 0.091-0.15 0.218-0.15 0.358 0 0.137 0.055 0.26 0.143 0.351l-0-0c1.878 1.916 2.912 4.449 2.912 7.132v4.811c0 5.618-4.571 10.189-10.189 10.189h-5.88c-0.138 0-0.264 0.056-0.354 0.147v0l-3.955 3.955v-4.491c-0-0.204-0.122-0.38-0.297-0.458l-0.003-0.001c-3.714-1.623-6.114-5.289-6.114-9.341v-4.811c0-5.618 4.571-10.189 10.189-10.189h6.414c2.002 0 3.94 0.58 5.604 1.678 0.078 0.053 0.175 0.085 0.279 0.085 0.277 0 0.501-0.224 0.501-0.501 0-0.175-0.090-0.33-0.227-0.419l-0.002-0.001c-1.828-1.206-3.957-1.844-6.156-1.844h-6.414c-6.171 0-11.191 5.021-11.191 11.191v4.811c0 4.339 2.507 8.277 6.414 10.123v5.378c0 0.436 0.546 0.664 0.855 0.354l4.664-4.664h5.672c6.171 0 11.191-5.021 11.191-11.191v-4.811c-0-2.947-1.136-5.729-3.199-7.834z"></path>
<path fill="#000" style="fill: var(--color5, #000)" d="M19.577 21.851c-2.395-0.377-5.718-1.54-7.86-3.673l-0.031-0.031c-0.985-0.989-1.863-2.353-2.539-3.945-0.078-0.182-0.255-0.308-0.462-0.308-0.277 0-0.501 0.224-0.501 0.501 0 0.072 0.015 0.14 0.042 0.202l-0.001-0.003c0.726 1.708 1.677 3.182 2.753 4.263l0.031 0.031c2.312 2.303 5.861 3.552 8.412 3.954 0.32 0.050 0.628 0.075 0.924 0.075 1.099 0 2.020-0.346 2.695-1.021 0.48-0.479 0.829-1.090 0.988-1.773l0.005-0.025c0.008-0.033 0.012-0.072 0.012-0.111 0-0.032-0.003-0.064-0.009-0.094l0 0.003-0.481-2.603c-0.038-0.202-0.193-0.359-0.391-0.4l-0.003-0.001-3.78-0.756c-0.029-0.006-0.063-0.010-0.098-0.010-0.138 0-0.264 0.056-0.355 0.147l-1.552 1.552c-2.616-1.168-4.061-2.616-5.334-5.343l1.547-1.547c0.091-0.091 0.147-0.216 0.147-0.355 0-0.035-0.004-0.069-0.010-0.101l0.001 0.003-0.756-3.78c-0.041-0.201-0.198-0.356-0.397-0.394l-0.003-0-2.603-0.481c-0.027-0.005-0.059-0.008-0.091-0.008-0.039 0-0.078 0.005-0.114 0.013l0.003-0.001c-0.708 0.164-1.318 0.513-1.798 0.993l-0 0c-0.857 0.857-1.184 2.108-0.946 3.619 0.108 0.688 0.269 1.401 0.478 2.118 0.077 0.266 0.356 0.418 0.621 0.341 0.21-0.063 0.361-0.254 0.361-0.481 0-0.050-0.007-0.098-0.021-0.144l0.001 0.004c-0.197-0.677-0.349-1.348-0.45-1.994-0.189-1.198 0.035-2.125 0.665-2.755 0.327-0.327 0.737-0.571 1.196-0.696l0.019-0.004 2.164 0.399 0.637 3.184-1.604 1.603c-0.091 0.091-0.147 0.216-0.147 0.354 0 0.074 0.016 0.144 0.045 0.207l-0.001-0.003c1.458 3.264 3.168 4.973 6.309 6.304 0.058 0.025 0.125 0.040 0.196 0.040 0.138 0 0.264-0.056 0.354-0.147l1.603-1.604 3.184 0.637 0.399 2.163c-0.13 0.478-0.373 0.888-0.7 1.215l-0 0c-0.63 0.63-1.556 0.853-2.755 0.665zM17.069 9.087c-0.277 0-0.501 0.224-0.501 0.501s0.224 0.501 0.501 0.501c1.197 0 2.171 0.974 2.171 2.171 0 0.273 0.228 0.501 0.501 0.501s0.501-0.228 0.501-0.501c0-1.75-1.424-3.174-3.174-3.174z"></path>
<path fill="#000" style="fill: var(--color5, #000)" d="M21.795 13.293c0.271 0.029 0.523-0.171 0.553-0.443 0.021-0.195 0.032-0.393 0.032-0.59 0-2.929-2.383-5.312-5.312-5.312-0.197 0-0.395 0.011-0.59 0.032-0.252 0.029-0.446 0.241-0.446 0.498 0 0.019 0.001 0.038 0.003 0.057l-0-0.002c0.030 0.275 0.278 0.473 0.553 0.443 0.144-0.017 0.311-0.026 0.479-0.026h0c2.376 0 4.309 1.933 4.309 4.309 0 0.16-0.009 0.321-0.026 0.48-0.030 0.275 0.168 0.523 0.443 0.553z"></path>
<path fill="#000" style="fill: var(--color5, #000)" d="M24.319 13.979c0.127-0.515 0.199-1.107 0.199-1.716 0-0.001 0-0.002 0-0.003v0c0-4.108-3.342-7.45-7.45-7.45-0.19 0-0.383 0.007-0.572 0.022-0.26 0.020-0.463 0.236-0.463 0.5 0 0.013 0.001 0.027 0.002 0.040l-0-0.002c0.020 0.26 0.236 0.463 0.499 0.463 0.014 0 0.027-0.001 0.040-0.002l-0.002 0c0.164-0.013 0.332-0.019 0.497-0.019 3.555 0 6.448 2.892 6.448 6.448 0 0.503-0.058 1.004-0.172 1.488-0.062 0.262 0.102 0.533 0.363 0.601 0.268 0.069 0.549-0.101 0.612-0.37z"></path>
</symbol>
<symbol id="icon-email" viewBox="0 0 32 32">
<path fill="#d80027" style="fill: var(--color1, #d80027)" d="M26.928 16.216v0l-7.415 7.003 10.537 8.78v-18.732z"></path>
<path fill="#ff5023" style="fill: var(--color2, #ff5023)" d="M1.951 13.268v18.732l10.537-8.78z"></path>
<path fill="#d80027" style="fill: var(--color1, #d80027)" d="M12.488 23.22l-10.537 8.78h14.049v-5.463z"></path>
<path fill="#a2001d" style="fill: var(--color3, #a2001d)" d="M16 26.537v5.463h14.049l-10.537-8.78z"></path>
<path fill="#ff5023" style="fill: var(--color2, #ff5023)" d="M5.073 10.32l-3.121 2.948h3.121zM30.049 13.268l-3.122-2.948 0 2.948zM16 0l-4.979 4.702 9.944-0.012z"></path>
<path fill="#a2001d" style="fill: var(--color3, #a2001d)" d="M26.928 16.216l3.121-2.948h-3.121zM16 26.537l-10.928-10.321 0-2.947h-3.121l10.537 9.951z"></path>
<path fill="#dedde0" style="fill: var(--color4, #dedde0)" d="M5.072 16.216l10.928 10.321 10.928-10.32-0-2.948-0-2.948-0-5.637-21.854 0.026-0.001 5.611-0 2.948-0 2.947zM8.976 14.049h14.049v2.341h-14.049v-2.341zM8.976 11.707v-2.341h14.049v2.341h-14.049z"></path>
<path fill="#fff" style="fill: var(--color5, #fff)" d="M8.976 9.366h14.049v2.341h-14.049zM8.976 14.049h14.049v2.341h-14.049z"></path>
</symbol>
<symbol id="icon-close" viewBox="0 0 32 32">
<path d="M16 26.88c-6.016 0-10.88-4.864-10.88-10.88s4.864-10.88 10.88-10.88 10.88 4.864 10.88 10.88-4.864 10.88-10.88 10.88zM16 6.4c-5.312 0-9.6 4.288-9.6 9.6s4.288 9.6 9.6 9.6 9.6-4.288 9.6-9.6-4.288-9.6-9.6-9.6z"></path>
<path d="M20.661 10.433l0.905 0.906-10.227 10.227-0.905-0.905z"></path>
<path d="M11.339 10.433l10.227 10.227-0.905 0.906-10.227-10.227z"></path>
</symbol>
<symbol id="icon-telegram" viewBox="0 0 32 32">
<path fill="#47b0d3" style="fill: var(--color1, #47b0d3)" d="M31.499 16c0 8.56-6.939 15.499-15.499 15.499s-15.499-6.939-15.499-15.499c0-8.56 6.939-15.499 15.499-15.499s15.499 6.939 15.499 15.499z"></path>
<path fill="#3298ba" style="fill: var(--color2, #3298ba)" d="M18.138 30.965c-8.56 0-15.499-6.939-15.499-15.499 0-6.875 4.476-12.703 10.672-14.732-7.278 1.273-12.81 7.623-12.81 15.266 0 8.56 6.939 15.499 15.499 15.499 1.685 0 3.307-0.27 4.826-0.767-0.808 0.148-1.737 0.233-2.686 0.233-0.001 0-0.002 0-0.003 0h0z"></path>
<path fill="#b2b2b2" style="fill: var(--color3, #b2b2b2)" d="M11.79 25.086l-1.231-7.385 12.924-10.462z"></path>
<path fill="#ccc" style="fill: var(--color4, #ccc)" d="M13.328 18.624l-1.538 6.462 11.693-17.847z"></path>
<path fill="#e5e5e5" style="fill: var(--color5, #e5e5e5)" d="M13.328 18.624l10.154-11.385-0.897 15.241c-0.013 0.217-0.24 0.353-0.437 0.261l-8.82-4.116z"></path>
<path fill="#e5e5e5" style="fill: var(--color5, #e5e5e5)" d="M23.482 7.239l-17.229 8.020c-0.24 0.112-0.236 0.455 0.007 0.561l4.299 1.881 12.924-10.462z"></path>
<path fill="#000" style="fill: var(--color6, #000)" d="M30.664 9.59c-0.856-1.956-2.077-3.697-3.63-5.176-0.090-0.086-0.212-0.138-0.346-0.138-0.143 0-0.271 0.060-0.363 0.155l-0 0c-0.086 0.090-0.138 0.212-0.138 0.346 0 0.143 0.060 0.271 0.155 0.363l0 0c3.002 2.859 4.655 6.716 4.655 10.861 0 8.27-6.728 14.998-14.998 14.998s-14.998-6.728-14.998-14.998 6.728-14.998 14.998-14.998c3.021 0 5.933 0.894 8.421 2.586 0.078 0.052 0.174 0.083 0.277 0.083 0.277 0 0.501-0.224 0.501-0.501 0-0.169-0.084-0.319-0.213-0.41l-0.002-0.001c-2.655-1.805-5.762-2.759-8.985-2.759-4.274 0-8.292 1.664-11.314 4.686s-4.686 7.040-4.686 11.314 1.664 8.292 4.686 11.314c3.022 3.022 7.040 4.686 11.314 4.686s8.292-1.664 11.314-4.686c3.022-3.022 4.686-7.040 4.686-11.314 0-2.228-0.449-4.385-1.336-6.41z"></path>
<path fill="#000" style="fill: var(--color6, #000)" d="M23.983 7.225c-0.010-0.355-0.391-0.589-0.712-0.441l-9.636 4.486c-0.172 0.082-0.29 0.254-0.29 0.454 0 0.077 0.017 0.149 0.048 0.215l-0.001-0.003c0.117 0.251 0.415 0.36 0.666 0.243l5.944-2.767-9.521 7.708-3.627-1.587 5.083-2.366c0.251-0.117 0.36-0.415 0.243-0.666s-0.415-0.36-0.666-0.243l-5.471 2.547c-0.278 0.132-0.467 0.411-0.467 0.734 0 0.006 0 0.013 0 0.019l-0-0.001c0.008 0.322 0.202 0.596 0.479 0.72l0.005 0.002 4.050 1.772 1.186 7.117c0.073 0.44 0.669 0.565 0.913 0.192l3.365-5.136 6.363 2.97c0.51 0.238 1.116-0.126 1.149-0.685l0.896-15.241c0.001-0.014 0.001-0.029 0.001-0.043zM15.211 18.949l-1.060-0.495 5.217-5.849-4.156 6.344zM13.673 19.338l0.983 0.459-1.715 2.618 0.733-3.077zM18.999 11.513l-6.045 6.778c-0.053 0.060-0.093 0.133-0.113 0.214l-0.001 0.003-0.964 4.050-0.775-4.652 7.898-6.394zM22.102 22.166l-5.974-2.788 6.744-10.293-0.769 13.081z"></path>
</symbol>
<symbol id="icon-form" viewBox="0 0 32 32">
<path fill="#fff" style="fill: var(--color1, #fff)" d="M0.25 28.9v-21.8h31.5v18.991c-0.001 1.55-1.257 2.808-2.808 2.809h-28.692z"></path>
<path fill="#aac1ce" style="fill: var(--color2, #aac1ce)" d="M31.5 7.35v18.741c-0.001 1.413-1.145 2.558-2.558 2.559h-28.442v-21.3h31zM32 6.85h-32v22.3h28.942c1.689 0 3.058-1.369 3.058-3.058v-19.242z"></path>
<path fill="#25b6d2" style="fill: var(--color3, #25b6d2)" d="M1.995 2.85h28.010c1.102 0 1.995 0.893 1.995 1.995v2.013h-32v-2.011c-0.001-1.102 0.891-1.995 1.994-1.997h0.002z"></path>
<path fill="#fff" style="fill: var(--color1, #fff)" opacity="0.7" d="M3.32 4.855c0 0.308-0.25 0.558-0.558 0.558s-0.558-0.25-0.558-0.558c0-0.308 0.25-0.558 0.558-0.558s0.558 0.25 0.558 0.558z"></path>
<path fill="#fff" style="fill: var(--color1, #fff)" opacity="0.7" d="M4.994 4.855c0 0.308-0.25 0.558-0.558 0.558s-0.558-0.25-0.558-0.558c0-0.308 0.25-0.558 0.558-0.558s0.558 0.25 0.558 0.558z"></path>
<path fill="#fff" style="fill: var(--color1, #fff)" opacity="0.7" d="M6.667 4.855c0 0.308-0.25 0.558-0.558 0.558s-0.558-0.25-0.558-0.558c0-0.308 0.25-0.558 0.558-0.558s0.558 0.25 0.558 0.558z"></path>
<path fill="#fff" style="fill: var(--color1, #fff)" d="M28.808 5.835h-19.865l1-1.96h18.865z"></path>
<path fill="#415e72" style="fill: var(--color4, #415e72)" d="M10.745 4.463l0.082 0.356c0.018 0.083 0.035 0.169 0.050 0.255h0.003c0.016-0.085 0.042-0.173 0.065-0.253l0.1-0.357h0.161l0.1 0.35c0.024 0.091 0.045 0.177 0.063 0.262h0.004c0.012-0.085 0.031-0.171 0.050-0.262l0.087-0.35h0.194l-0.246 0.784h-0.184l-0.094-0.319c-0.020-0.065-0.041-0.149-0.057-0.234l-0.002-0.016h-0.004c-0.017 0.098-0.038 0.183-0.063 0.264l0.004-0.014-0.1 0.319h-0.185l-0.232-0.784h0.204zM12.017 4.463l0.082 0.356c0.018 0.083 0.035 0.169 0.050 0.255h0.001c0.015-0.085 0.041-0.173 0.064-0.253l0.1-0.357h0.161l0.1 0.35c0.024 0.091 0.045 0.177 0.063 0.262h0.004c0.012-0.085 0.031-0.171 0.050-0.262l0.087-0.35h0.195l-0.246 0.784h-0.184l-0.094-0.319c-0.020-0.065-0.041-0.149-0.057-0.234l-0.002-0.016c-0.017 0.098-0.038 0.183-0.063 0.264l0.004-0.014-0.1 0.319h-0.185l-0.232-0.784h0.204zM13.289 4.463l0.082 0.356c0.018 0.083 0.035 0.169 0.050 0.255h0.003c0.016-0.085 0.042-0.173 0.065-0.253l0.1-0.357h0.162l0.1 0.35c0.024 0.091 0.045 0.177 0.063 0.262h0.004c0.012-0.085 0.031-0.171 0.050-0.262l0.087-0.35h0.197l-0.25 0.784h-0.184l-0.094-0.319c-0.020-0.065-0.041-0.149-0.057-0.234l-0.002-0.016h-0.004c-0.017 0.098-0.038 0.183-0.063 0.264l0.004-0.014-0.1 0.319h-0.185l-0.232-0.784h0.206zM14.321 5.138c-0-0.002-0-0.004-0-0.006 0-0.065 0.051-0.118 0.114-0.121h0.008c0.067 0.004 0.12 0.060 0.12 0.128 0 0.003-0 0.005-0 0.008l0-0c-0.004 0.064-0.055 0.115-0.119 0.119l-0 0c-0.001 0-0.001 0-0.002 0-0.067 0-0.121-0.054-0.121-0.121 0-0.002 0-0.004 0-0.007v0zM26.427 4.729h1.348v0.25h-1.348z"></path>
<path fill="#415e72" style="fill: var(--color4, #415e72)" d="M27.39 5.537l-0.177-0.177 0.505-0.506-0.505-0.505 0.177-0.177 0.683 0.682zM6.588 12.902h18.823v12.366h-18.823z"></path>
<path fill="#e04f5f" style="fill: var(--color5, #e04f5f)" d="M6.588 10.731h18.823v2.172h-18.823z"></path>
<path fill="#25b6d2" style="fill: var(--color3, #25b6d2)" d="M12.882 21.12h6.237v2.172h-6.237z"></path>
<path fill="#fff" style="fill: var(--color1, #fff)" d="M9.957 17.61h12.085v2.172h-12.085zM9.957 14.749h12.085v2.172h-12.085z"></path>
<path fill="#aec4ce" style="fill: var(--color6, #aec4ce)" d="M11.508 18.695c0 0.16-0.13 0.29-0.29 0.29s-0.29-0.13-0.29-0.29c0-0.16 0.13-0.29 0.29-0.29s0.29 0.13 0.29 0.29z"></path>
<path fill="#aec4ce" style="fill: var(--color6, #aec4ce)" d="M12.557 18.695c0 0.16-0.13 0.29-0.29 0.29s-0.29-0.13-0.29-0.29c0-0.16 0.13-0.29 0.29-0.29s0.29 0.13 0.29 0.29z"></path>
<path fill="#aec4ce" style="fill: var(--color6, #aec4ce)" d="M13.607 18.695c0 0.16-0.13 0.29-0.29 0.29s-0.29-0.13-0.29-0.29c0-0.16 0.13-0.29 0.29-0.29s0.29 0.13 0.29 0.29z"></path>
<path fill="#aec4ce" style="fill: var(--color6, #aec4ce)" d="M14.656 18.695c0 0.16-0.13 0.29-0.29 0.29s-0.29-0.13-0.29-0.29c0-0.16 0.13-0.29 0.29-0.29s0.29 0.13 0.29 0.29z"></path>
<path fill="#aec4ce" style="fill: var(--color6, #aec4ce)" d="M15.707 18.695c0 0.16-0.13 0.29-0.29 0.29s-0.29-0.13-0.29-0.29c0-0.16 0.13-0.29 0.29-0.29s0.29 0.13 0.29 0.29z"></path>
<path fill="#aec4ce" style="fill: var(--color6, #aec4ce)" d="M16.756 18.695c0 0.16-0.13 0.29-0.29 0.29s-0.29-0.13-0.29-0.29c0-0.16 0.13-0.29 0.29-0.29s0.29 0.13 0.29 0.29z"></path>
<path fill="#fff" style="fill: var(--color1, #fff)" d="M14.239 22.484c0.054 0.033 0.12 0.053 0.19 0.053h0c0.108 0 0.172-0.057 0.172-0.14s-0.044-0.121-0.155-0.164c-0.134-0.047-0.217-0.117-0.217-0.233 0.006-0.125 0.11-0.225 0.236-0.225 0.004 0 0.008 0 0.012 0l-0.001-0 0.018 0.002c0.004-0 0.008-0 0.013-0 0.062 0 0.12 0.015 0.172 0.041l-0.002-0.001-0.030 0.087c-0.045-0.025-0.099-0.039-0.156-0.039v0c-0.113 0-0.155 0.067-0.155 0.123 0 0.077 0.050 0.114 0.164 0.159 0.139 0.053 0.21 0.12 0.21 0.241s-0.094 0.237-0.288 0.237c-0.003 0-0.006 0-0.009 0-0.073 0-0.143-0.019-0.203-0.051l0.002 0.001 0.027-0.091zM15.347 22.45c0 0.061 0 0.114 0.005 0.161h-0.095l-0.007-0.096c-0.039 0.067-0.111 0.111-0.192 0.111-0.001 0-0.002 0-0.003-0h0c-0.093 0-0.204-0.050-0.204-0.259v-0.346h0.107v0.329c0 0.113 0.034 0.188 0.132 0.188 0.064-0.002 0.119-0.042 0.141-0.099l0-0.001c0.007-0.017 0.010-0.036 0.010-0.055v-0.363h0.107l-0.002 0.43zM15.521 22.613c0-0.040 0.005-0.1 0.005-0.15v-0.717h0.106v0.371c0.039-0.066 0.11-0.109 0.191-0.109 0.003 0 0.006 0 0.010 0h-0c0.141 0.007 0.252 0.123 0.252 0.265 0 0.012-0.001 0.025-0.003 0.037l0-0.001c0.002 0.011 0.002 0.023 0.002 0.036 0 0.143-0.106 0.26-0.244 0.278l-0.001 0c-0.007 0.001-0.014 0.002-0.021 0.002-0.004 0-0.009 0-0.014 0-0.080 0-0.15-0.045-0.185-0.111l-0.001-0.001h-0.004l-0.005 0.1h-0.088zM15.632 22.377c0.001 0.013 0.002 0.026 0.005 0.039 0.019 0.073 0.084 0.125 0.161 0.125 0 0 0 0 0 0v0c0.113 0 0.179-0.091 0.179-0.227 0-0.119-0.060-0.22-0.176-0.22-0.079 0.001-0.145 0.057-0.163 0.131l-0 0.001c-0.004 0.013-0.006 0.028-0.007 0.044v0l0.001 0.105zM16.22 22.183c0-0.061 0-0.111-0.005-0.16h0.094l0.005 0.095h0.003c0.035-0.065 0.103-0.109 0.181-0.109 0.002 0 0.003 0 0.005 0h-0c0.001 0 0.001 0 0.002 0 0.076 0 0.141 0.049 0.165 0.117l0 0.001c0.017-0.030 0.039-0.056 0.066-0.076 0.034-0.026 0.076-0.042 0.123-0.042 0.003 0 0.006 0 0.009 0h-0c0.078 0 0.194 0.050 0.194 0.257v0.35h-0.105v-0.334c0-0.114-0.041-0.182-0.128-0.182-0.060 0.003-0.11 0.044-0.127 0.099l-0 0.001c-0.006 0.017-0.009 0.035-0.009 0.053v0.365h-0.105v-0.354c0-0.094-0.041-0.163-0.123-0.163-0.064 0.004-0.117 0.047-0.133 0.106l-0 0.001c-0.005 0.015-0.009 0.031-0.009 0.049 0 0.001 0 0.002 0 0.004v-0 0.357h-0.105l0.003-0.435zM17.358 21.857c0.002 0.035-0.025 0.064-0.059 0.066h-0.009c-0 0-0 0-0.001 0-0.035 0-0.064-0.028-0.064-0.064v0-0.003c0-0.001-0-0.001-0-0.002 0-0.036 0.028-0.064 0.063-0.066h0.004c0.001-0 0.001-0 0.002-0 0.034 0 0.062 0.027 0.064 0.061v0.006zM17.239 22.613v-0.591h0.108v0.591h-0.108zM17.654 21.852v0.17h0.154v0.082h-0.154v0.319c0 0.073 0.020 0.114 0.080 0.114 0.002 0 0.003 0 0.005 0 0.020 0 0.040-0.003 0.059-0.008l-0.002 0 0.005 0.081c-0.030 0.011-0.063 0.015-0.095 0.015-0.002 0-0.005 0-0.007 0-0.042 0-0.081-0.017-0.108-0.046l-0-0c-0.027-0.036-0.043-0.081-0.043-0.13 0-0.008 0-0.017 0.001-0.025l-0 0.001v-0.323h-0.091v-0.082h0.093v-0.142l0.104-0.027z"></path>
<path fill="#aec4ce" style="fill: var(--color6, #aec4ce)" d="M10.938 16.261v-0.823h0.116l0.264 0.416c0.055 0.085 0.104 0.175 0.148 0.267-0.010-0.11-0.012-0.21-0.012-0.338v-0.344h0.1v0.823h-0.103l-0.261-0.418c-0.050-0.077-0.102-0.167-0.147-0.26l-0.007-0.015h-0.004c0.006 0.104 0.008 0.203 0.008 0.339v0.35l-0.102 0.002zM12.065 16.261l-0.008-0.074h-0.004c-0.041 0.054-0.104 0.088-0.176 0.088-0.002 0-0.003-0-0.005-0h0c-0.004 0-0.008 0-0.012 0-0.089 0-0.161-0.069-0.168-0.156l-0-0.001c-0.001-0.005-0.001-0.009-0.001-0.014 0-0.143 0.127-0.22 0.355-0.22v-0.012c0.001-0.005 0.001-0.010 0.001-0.015 0-0.062-0.046-0.113-0.106-0.121l-0.001-0c-0.004-0.001-0.009-0.001-0.014-0.001s-0.010 0-0.015 0.001l0.001-0c-0.057 0-0.11 0.017-0.155 0.045l0.001-0.001-0.024-0.071c0.054-0.033 0.119-0.053 0.189-0.053 0.002 0 0.003 0 0.005 0h-0c0.181 0 0.225 0.123 0.225 0.242v0.221c-0.001 0.047 0.002 0.095 0.010 0.142l-0.098-0zM12.050 15.96c-0.117 0-0.25 0.018-0.25 0.134-0 0.002-0 0.005-0 0.008 0 0.050 0.038 0.091 0.087 0.095l0 0c0.002 0 0.004 0 0.007 0s0.005-0 0.007-0l-0 0c0.001 0 0.002 0 0.004 0 0.064 0 0.119-0.041 0.139-0.099l0-0.001c0.004-0.010 0.006-0.022 0.007-0.034v-0l0.001-0.102zM12.326 15.83c0-0.062 0-0.111-0.005-0.16h0.094l0.005 0.095h0.004c0.035-0.065 0.103-0.109 0.181-0.109 0.002 0 0.004 0 0.005 0h-0c0.001 0 0.001 0 0.002 0 0.076 0 0.141 0.049 0.164 0.117l0 0.001c0.017-0.030 0.039-0.056 0.066-0.076 0.034-0.026 0.076-0.042 0.123-0.042 0.003 0 0.006 0 0.009 0h-0c0.078 0 0.194 0.050 0.194 0.257v0.35h-0.105v-0.335c0-0.114-0.041-0.182-0.128-0.182-0.060 0.003-0.11 0.044-0.127 0.099l-0 0.001c-0.005 0.018-0.009 0.036-0.009 0.053v0.365h-0.105v-0.354c0-0.094-0.041-0.162-0.123-0.162-0.064 0.004-0.117 0.047-0.133 0.106l-0 0.001c-0.005 0.015-0.008 0.033-0.008 0.051 0 0.001 0 0.001 0 0.002v-0 0.356h-0.105l0.002-0.435zM13.405 15.985c-0 0.005-0.001 0.010-0.001 0.015 0 0.1 0.076 0.181 0.174 0.19l0.001 0c0.009 0.001 0.020 0.001 0.029 0 0.004 0 0.009 0 0.014 0 0.054 0 0.105-0.012 0.152-0.032l-0.002 0.001 0.018 0.077c-0.054 0.023-0.117 0.037-0.182 0.037-0.005 0-0.010-0-0.015-0l0.001 0c-0.005 0-0.012 0.001-0.018 0.001-0.145 0-0.264-0.113-0.273-0.256l-0-0.001c-0-0.005-0.001-0.012-0.001-0.018 0-0.009 0-0.018 0.001-0.027l-0 0.001c-0.001-0.009-0.002-0.020-0.002-0.031 0-0.156 0.124-0.283 0.279-0.287h0c0.136 0.003 0.246 0.114 0.246 0.25 0 0.010-0.001 0.020-0.002 0.030l0-0.001c0 0.017-0.002 0.034-0.004 0.050l-0.415 0.003zM13.72 15.908c0.001-0.006 0.002-0.014 0.002-0.022 0-0.084-0.068-0.152-0.151-0.153h-0c-0.091 0.007-0.163 0.083-0.165 0.175v0h0.315z"></path>
<path fill="#25b6d2" style="fill: var(--color3, #25b6d2)" d="M12.882 22.494v-1.375h1.374z"></path>
</symbol>
<symbol id="icon-form" viewBox="0 0 32 32">
<path d="M28.12 5.104c-0.212-0.212-0.504-0.343-0.828-0.343-0 0-0 0-0 0h-22.583c-0.322 0-0.616 0.132-0.83 0.343-0.212 0.214-0.345 0.507-0.345 0.83v16.261c0 0.322 0.134 0.616 0.345 0.828 0.214 0.214 0.507 0.345 0.83 0.345h22.583c0.322 0 0.616-0.132 0.828-0.345 0.213-0.211 0.345-0.504 0.345-0.827 0-0 0-0.001 0-0.001v0-16.261c0-0.317-0.128-0.607-0.332-0.818l-0.013-0.011zM27.022 18.997v-12.803h-22.095v12.803h22.095zM27.489 5.959v13.272c0 0.13-0.105 0.235-0.233 0.235h-22.564c-0 0-0 0-0 0-0.129 0-0.234-0.105-0.234-0.234 0-0 0-0 0-0v0-13.272c0-0 0-0 0-0 0-0.129 0.105-0.234 0.234-0.234 0 0 0 0 0 0h22.564c0.128 0 0.233 0.105 0.233 0.235zM18.711 23.838h-5.421l-1.084 4.116h7.588l-1.083-4.116zM11.903 28.424h-3.388v0.647h14.972v-0.647h-11.584zM19.937 7.222h0.026c1.469 0.011 2.796 0.61 3.76 1.574 0.179 0.177 0.343 0.368 0.496 0.57l0.004 0.004 0.004 0.006 0.002 0.004c0.669 0.895 1.066 2.003 1.068 3.205l0.002 0.006v0.011l-0.002 0.006c-0.002 1.48-0.603 2.819-1.572 3.788-0.965 0.963-2.293 1.562-3.762 1.574h-0.078c-1.467-0.012-2.796-0.61-3.76-1.574-0.969-0.969-1.57-2.306-1.574-3.783v-0.034c0.004-1.478 0.605-2.814 1.574-3.783 0.963-0.963 2.293-1.562 3.76-1.574h0.052zM19.447 9.379l-0.002 0.002h-0.002zM19.436 9.387h-0.002l-0.002 0.002-0.023 0.021c-0.008 0.008-0.013 0.015-0.021 0.023v0.002l-0.009 0.013-0.011 0.019h-0.002v0.004l-0.002 0.002-0.002 0.002-0.002 0.006v0.004l-0.004 0.004-0.002 0.006v0.004l-0.002 0.002v0.004l-0.002 0.002v0.002l-0.002 0.004v0.004l-0.002 0.002v0.006l-0.002 0.002v0.006l-0.002 0.004v0.006l-0.002 0.004v0.011l-0.002 0.002v3.773l0.002 0.002v0.015l0.002 0.002v0.008h0.002v0.008l0.002 0.004v0.006l0.002 0.004 0.002 0.002v0.008l0.002 0.002 0.002 0.002c0.012 0.034 0.030 0.063 0.055 0.088l0.002 0.002 0.002 0.002 0.002 0.002 0.002 0.002 0.002 0.002 0.002 0.002 0.004 0.002 0.002 0.002 0.002 0.002 0.002 0.002 0.002 0.002h0.002l0.004 0.002 0.004 0.004 0.002 0.002 0.004 0.002 0.002 0.002 0.002 0.002h0.004l0.002 0.002 0.004 0.004h0.004l0.002 0.002 0.002 0.002h0.004l0.002 0.002 0.004 0.002h0.002l0.002 0.002 0.004 0.002h0.002l0.002 0.002h0.004l0.002 0.002h0.004l0.002 0.002h0.004l0.002 0.002h0.004l0.002 0.002h0.004l0.002 0.002h0.006l0.004 0.002h0.008l0.004 0.002h0.002l0.006 0.002h0.021l0.004 0.002h0.708l0.004-0.002h0.021l0.006-0.002h0.004l0.002-0.002h0.009l0.002-0.002h0.006l0.004-0.002h0.002l0.004-0.002h0.002l0.004-0.002h0.002l0.002-0.002h0.004l0.002-0.002h0.004l0.002-0.002h0.004v-0.002h0.002l0.002-0.002h0.004l0.002-0.002 0.002-0.002h0.004l0.002-0.002 0.002-0.002h0.004l0.002-0.002 0.002-0.002h0.002l0.002-0.002h0.002l0.002-0.002 0.004-0.002 0.002-0.002 0.002-0.002 0.002-0.002 0.004-0.002 0.002-0.002h0.002l0.002-0.002 0.002-0.002 0.002-0.002h0.002l0.002-0.002 0.002-0.002 0.002-0.002 0.002-0.002 0.002-0.002 0.002-0.002 0.004-0.004 0.002-0.002 0.004-0.004 0.002-0.002 0.002-0.002 0.002-0.002 0.002-0.002 0.004-0.004 0.002-0.002v-0.002l0.002-0.002 0.002-0.002v-0.002h0.002v-0.002h0.002v-0.002l0.002-0.002v-0.002l0.002-0.002v-0.002h0.002l0.002-0.004 0.002-0.002v-0.002l0.002-0.002 0.006-0.011 0.002-0.002v-0.002l0.002-0.002v-0.002l0.002-0.002 0.002-0.006v-0.002l0.002-0.002v-0.004h0.002v-0.004l0.002-0.002v-0.004h0.002v-0.004l0.002-0.002v-0.006h0.002v-0.008l0.002-0.004v-0.004l0.002-0.008v-0.002l0.002-0.002v-0.013l0.002-0.008v-3.773h-0.002v-0.015h-0.002v-0.010l-0.002-0.002v-0.006l-0.002-0.004v-0.004h-0.002v-0.008l-0.002-0.002v-0.002h-0.002v-0.006h-0.002v-0.006h-0.002v-0.004l-0.002-0.002v-0.002l-0.002-0.004v-0.002h-0.002v-0.004l-0.002-0.002v-0.002h-0.002v-0.004l-0.002-0.002-0.002-0.002v-0.004l-0.002-0.002-0.002-0.002-0.002-0.004-0.002-0.002v-0.002h-0.002v-0.002l-0.002-0.004-0.002-0.002-0.002-0.002-0.004-0.004-0.002-0.004-0.002-0.002v-0.002h-0.002v-0.002h-0.002v-0.002h-0.002v-0.002h-0.002v-0.004l-0.002-0.002-0.004-0.002-0.002-0.002-0.002-0.002-0.002-0.002-0.004-0.004-0.002-0.002-0.004-0.004-0.002-0.002-0.002-0.002h-0.002l-0.002-0.002-0.008-0.008-0.004-0.002h-0.002l-0.002-0.002-0.002-0.002-0.004-0.002-0.002-0.002h-0.002l-0.002-0.002h-0.002l-0.002-0.002-0.002-0.002-0.002-0.002h-0.004l-0.002-0.002-0.004-0.002h-0.002l-0.002-0.002-0.004-0.002h-0.002l-0.002-0.002h-0.004l-0.002-0.002-0.004-0.002h-0.002l-0.004-0.002h-0.002l-0.002-0.002h-0.004l-0.002-0.002h-0.006l-0.004-0.002h-0.002l-0.004-0.002h-0.008l-0.004-0.002h-0.006l-0.006-0.002h-0.012l-0.004-0.002h-0.727l-0.002 0.002h-0.015v0.002h-0.009l-0.002 0.002h-0.009v0.002h-0.006l-0.002 0.002h-0.006l-0.004 0.002h-0.002l-0.004 0.002h-0.002l-0.004 0.002h-0.002l-0.006 0.004h-0.002l-0.004 0.002h-0.002v0.002l-0.006 0.002h-0.002l-0.004 0.002-0.002 0.002-0.010 0.006zM16.21 21.925c-0.053-0.052-0.128-0.086-0.21-0.086s-0.156 0.032-0.21 0.086c-0.053 0.054-0.086 0.128-0.086 0.21v0c0 0.082 0.033 0.156 0.088 0.21 0.053 0.054 0.126 0.088 0.208 0.088 0 0 0 0 0 0v0c0 0 0 0 0.001 0 0.077 0 0.147-0.030 0.2-0.078l-0 0 0.010-0.009c0.054-0.054 0.087-0.128 0.088-0.21v-0c0-0.080-0.034-0.154-0.088-0.21zM16 21.37c0.001 0 0.001 0 0.002 0 0.21 0 0.401 0.086 0.537 0.225l0 0c0.139 0.137 0.225 0.328 0.225 0.539 0 0 0 0 0 0.001v-0c0 0.212-0.086 0.404-0.223 0.542l-0.017 0.015c-0.137 0.13-0.322 0.21-0.525 0.21-0.21 0-0.402-0.088-0.54-0.225-0.139-0.138-0.225-0.328-0.225-0.539 0-0.001 0-0.002 0-0.003v0c0-0.21 0.086-0.401 0.223-0.54l0.009-0.008c0.137-0.133 0.326-0.217 0.532-0.217zM6.079 7.964c-0 0-0 0-0 0-0.129 0-0.234-0.105-0.234-0.234 0-0 0-0 0-0v0c0-0 0-0 0-0 0-0.129 0.105-0.234 0.234-0.234 0 0 0 0 0 0h3.348c0.128 0 0.234 0.105 0.234 0.235s-0.107 0.235-0.234 0.235h-3.348zM6.079 9.217c-0 0-0 0-0 0-0.129 0-0.234-0.105-0.234-0.234 0-0 0-0 0-0v0c0-0 0-0 0-0 0-0.129 0.105-0.234 0.234-0.234 0 0 0 0 0 0h6.693c0.13 0 0.235 0.105 0.235 0.235s-0.105 0.235-0.235 0.235h-6.694zM6.079 10.47c-0.13 0-0.234-0.105-0.234-0.235s0.105-0.235 0.234-0.235h6.693c0.13 0 0.235 0.105 0.235 0.235s-0.105 0.235-0.235 0.235v0h-6.694zM22.8 12.361h2.024c-0.047-0.967-0.368-1.852-0.886-2.587l0.010 0.015c-0.382 0.135-0.867 0.269-1.363 0.376l-0.085 0.015c0.175 0.66 0.28 1.4 0.299 2.18zM20.981 10.405v1.955h1.351c-0.019-0.753-0.122-1.463-0.292-2.091-0.353 0.061-0.706 0.105-1.058 0.135zM22.367 9.732c0.424-0.088 0.849-0.2 1.276-0.336-0.084-0.097-0.166-0.184-0.25-0.269l0 0c-0.558-0.558-1.249-0.982-2.022-1.221l-0.035-0.009c0.246 0.257 0.471 0.58 0.664 0.958 0.137 0.265 0.259 0.561 0.366 0.877zM20.16 8.87h0.122l0.009 0.002h0.036l0.008 0.002h0.010l0.009 0.002h0.008l0.010 0.002 0.009 0.002h0.008l0.009 0.002 0.008 0.002 0.010 0.002 0.008 0.002 0.010 0.002 0.008 0.002 0.009 0.002 0.008 0.002 0.009 0.002 0.008 0.004 0.008 0.002 0.009 0.002 0.008 0.004 0.008 0.002 0.009 0.004 0.008 0.004 0.008 0.002 0.008 0.004 0.009 0.004 0.008 0.002 0.008 0.004 0.008 0.004 0.007 0.004 0.008 0.004 0.008 0.004 0.015 0.008 0.007 0.006 0.008 0.004 0.008 0.004 0.006 0.004 0.008 0.006 0.008 0.004 0.007 0.004 0.006 0.006 0.008 0.004 0.008 0.006 0.006 0.006 0.008 0.004 0.008 0.006 0.006 0.006 0.008 0.004 0.006 0.006 0.006 0.006 0.008 0.006 0.006 0.006 0.006 0.006 0.007 0.006 0.006 0.006 0.006 0.006 0.006 0.006 0.008 0.006 0.006 0.008 0.006 0.006 0.006 0.006 0.006 0.006 0.004 0.008 0.012 0.011 0.006 0.008 0.006 0.006 0.006 0.008 0.004 0.008 0.006 0.006 0.006 0.008 0.004 0.006 0.006 0.008 0.004 0.008 0.006 0.008 0.004 0.006 0.004 0.008 0.006 0.008 0.004 0.008 0.004 0.008 0.004 0.008 0.004 0.008 0.004 0.008 0.004 0.008 0.004 0.008 0.004 0.008 0.004 0.008 0.004 0.008 0.004 0.008 0.004 0.008 0.002 0.009 0.004 0.008 0.004 0.008 0.002 0.008 0.004 0.010 0.002 0.008 0.002 0.008 0.004 0.009 0.002 0.008 0.002 0.008 0.002 0.009 0.004 0.008 0.002 0.009 0.002 0.008 0.002 0.009 0.002 0.008v0.010l0.002 0.008 0.002 0.010 0.002 0.009v0.008l0.002 0.009v0.009l0.002 0.008v0.019l0.002 0.008v0.395c0.364-0.032 0.68-0.074 0.991-0.128l-0.070 0.010c-0.099-0.294-0.206-0.542-0.331-0.779l0.014 0.029c-0.381-0.744-0.881-1.242-1.425-1.352v1.154zM18.514 7.897c-0.808 0.247-1.499 0.672-2.056 1.23l-0 0c-0.088 0.086-0.17 0.175-0.25 0.269 0.325 0.109 0.753 0.223 1.189 0.316l0.087 0.016c0.105-0.315 0.227-0.608 0.364-0.874 0.195-0.378 0.418-0.7 0.666-0.958zM18.869 9.934v-0.383l0.002-0.010v-0.017l0.002-0.009v-0.008l0.002-0.009v-0.009l0.002-0.008v-0.009l0.002-0.010 0.002-0.008 0.002-0.010 0.002-0.008 0.002-0.009 0.002-0.008 0.002-0.009 0.002-0.008 0.002-0.009 0.002-0.008 0.002-0.008 0.004-0.009 0.002-0.008 0.004-0.008 0.002-0.010 0.004-0.008 0.002-0.008 0.004-0.008 0.004-0.009 0.002-0.008 0.004-0.008 0.004-0.008 0.004-0.008 0.004-0.008 0.004-0.008 0.004-0.008 0.004-0.008 0.004-0.008 0.004-0.008 0.010-0.015 0.008-0.015 0.006-0.006 0.002-0.004 0.002-0.004 0.002-0.004 0.004-0.004 0.004-0.008 0.006-0.006 0.004-0.008 0.004-0.004 0.002-0.002 0.002-0.004 0.004-0.004 0.032-0.040 0.029-0.031 0.030-0.029 0.040-0.033 0.004-0.002 0.002-0.004 0.004-0.002 0.004-0.002 0.008-0.006 0.006-0.004v-0.002l0.004-0.002 0.004-0.002 0.004-0.002 0.004-0.004 0.002-0.002 0.004-0.002 0.004-0.002 0.004-0.002 0.015-0.010 0.015-0.008 0.006-0.006h0.002l0.007-0.004 0.006-0.004 0.010-0.004 0.008-0.004 0.007-0.004 0.008-0.004 0.008-0.004 0.008-0.002 0.008-0.004 0.007-0.004 0.010-0.002 0.008-0.004 0.007-0.004 0.008-0.002 0.010-0.004 0.008-0.002 0.007-0.002 0.010-0.004 0.008-0.002 0.009-0.002 0.008-0.002 0.009-0.002 0.008-0.002 0.010-0.002 0.008-0.002 0.010-0.002 0.008-0.002h0.009l0.008-0.002h0.002l0.007-0.002h0.010l0.008-0.002h0.009l0.010-0.002h0.036l0.008-0.002h0.124v-1.154c-0.546 0.111-1.043 0.608-1.427 1.352-0.107 0.205-0.214 0.452-0.303 0.707l-0.012 0.040c0.306 0.051 0.613 0.091 0.92 0.118zM17.35 10.178c-0.584-0.123-1.069-0.257-1.542-0.417l0.095 0.028c-0.513 0.734-0.832 1.618-0.876 2.571h2.024c0.017-0.782 0.124-1.522 0.299-2.182zM18.869 12.361v-1.957c-0.415-0.036-0.777-0.085-1.135-0.148l0.076 0.011c-0.17 0.629-0.273 1.339-0.29 2.094h1.349zM16.036 15.584l0.057 0.072c0.118 0.148 0.238 0.281 0.364 0.406l0 0c0.557 0.559 1.248 0.983 2.021 1.221l0.035 0.009c-0.248-0.258-0.471-0.58-0.666-0.958-0.172-0.332-0.319-0.708-0.441-1.116-0.456 0.095-0.914 0.217-1.371 0.364zM17.051 12.83h-2.024c0.048 1.034 0.418 1.986 1.009 2.754 0.458-0.147 0.916-0.269 1.371-0.364-0.21-0.711-0.337-1.526-0.357-2.39zM19.691 14.016h-0.16l-0.007-0.002h-0.019l-0.008-0.002-0.010-0.002h-0.009l-0.008-0.002-0.009-0.002h-0.008l-0.010-0.002-0.009-0.002-0.008-0.002-0.009-0.002-0.015-0.004-0.009-0.004-0.008-0.002-0.010-0.002-0.007-0.002-0.008-0.004-0.010-0.002-0.008-0.004-0.007-0.002-0.010-0.004-0.008-0.002-0.007-0.004-0.008-0.004-0.008-0.004-0.008-0.004-0.009-0.002-0.023-0.011-0.007-0.004-0.008-0.006-0.006-0.004-0.008-0.004-0.008-0.004-0.008-0.004-0.007-0.006-0.008-0.004-0.006-0.006-0.008-0.004-0.008-0.006-0.006-0.004-0.008-0.006-0.007-0.004-0.006-0.006-0.007-0.006-0.006-0.006-0.008-0.006-0.006-0.004-0.006-0.006-0.008-0.006-0.006-0.006-0.006-0.006-0.008-0.006-0.011-0.011c-0.064-0.064-0.115-0.14-0.151-0.224l-0.002-0.005-0.002-0.006-0.002-0.004-0.002-0.006v-0.002l-0.004-0.004v-0.004l-0.002-0.002-0.002-0.006-0.002-0.006v-0.002l-0.002-0.004v-0.004l-0.002-0.002-0.002-0.006-0.002-0.006v-0.002l-0.002-0.004-0.002-0.004v-0.002l-0.002-0.006v-0.006l-0.002-0.004v-0.002l-0.002-0.006-0.002-0.008-0.002-0.008v-0.002l-0.002-0.008-0.002-0.008v-0.002l-0.002-0.006v-0.002l-0.002-0.008v-0.002l-0.002-0.006v-0.008l-0.002-0.009v-0.004l-0.002-0.004v-0.009l-0.002-0.008v-0.013l-0.002-0.004v-0.025l-0.002-0.008v-0.507h-1.349c0.019 0.839 0.143 1.623 0.349 2.302 0.345-0.059 0.689-0.105 1.034-0.133-0.345 0.029-0.689 0.074-1.034 0.133 0.111 0.362 0.242 0.694 0.395 0.99 0.383 0.746 0.881 1.242 1.427 1.354v-1.183h-0.004l-0.006-0.002-0.007-0.002h-0.002l-0.010-0.002-0.002-0.002-0.008-0.002h-0.004l-0.004-0.002-0.009-0.002-0.010-0.004h-0.002l-0.008-0.002-0.008-0.004-0.010-0.002-0.009-0.004-0.008-0.002-0.008-0.004h-0.002l-0.008-0.002-0.004-0.002-0.006-0.002-0.006-0.002-0.004-0.002-0.008-0.004-0.009-0.004h-0.004l-0.004-0.002-0.008-0.004h-0.002l-0.017-0.008-0.004-0.002-0.004-0.002-0.007-0.004h-0.002l-0.008-0.004-0.002-0.002-0.006-0.002-0.017-0.009-0.008-0.004-0.004-0.002-0.006-0.002-0.006-0.004-0.002-0.002-0.008-0.004h-0.002l-0.006-0.004-0.006-0.004-0.004-0.002-0.008-0.004-0.008-0.006h-0.002l-0.006-0.004-0.006-0.004-0.002-0.002-0.008-0.004h-0.002l-0.006-0.006-0.004-0.002-0.004-0.002-0.007-0.006-0.010-0.006-0.006-0.006-0.006-0.002-0.002-0.002-0.007-0.006-0.008-0.006-0.002-0.002-0.011-0.008-0.002-0.002-0.006-0.006h-0.002l-0.006-0.006-0.004-0.002-0.004-0.004-0.006-0.006h-0.002l-0.006-0.006-0.002-0.002-0.006-0.004-0.004-0.004-0.004-0.002-0.006-0.006-0.002-0.002-0.006-0.004-0.002-0.004-0.004-0.004-0.006-0.006h-0.002l-0.006-0.006-0.002-0.002-0.006-0.006-0.004-0.004-0.002-0.002-0.008-0.006-0.013-0.015c-0.183-0.191-0.296-0.448-0.296-0.732v-0.029l0.002-0.004v-0.036l0.002-0.004v-0.021l0.002-0.004v-0.017l0.002-0.004v-0.011l0.002-0.002v-0.015h0.002v-0.010l0.002-0.004v-0.012l0.002-0.002v-0.008l0.002-0.008v-0.004l0.002-0.004v-0.006l0.002-0.004v-0.008l0.002-0.002v-0.004l0.002-0.004v-0.004l0.002-0.011 0.004-0.011 0.004-0.013v-0.002l0.002-0.010 0.002-0.008 0.002-0.006 0.002-0.004 0.002-0.008v-0.002l0.002-0.008 0.002-0.004 0.002-0.004 0.002-0.008v-0.001l0.004-0.008v-0.004l0.002-0.004 0.004-0.009 0.002-0.008 0.002-0.004 0.002-0.004 0.002-0.008v-0.002l0.004-0.008 0.002-0.004 0.002-0.004 0.002-0.008v-0.002l0.004-0.008 0.002-0.002 0.002-0.006 0.002-0.006 0.002-0.002 0.004-0.009 0.004-0.008 0.002-0.004 0.006-0.011v-0.002l0.004-0.006 0.002-0.006 0.002-0.002 0.004-0.010 0.004-0.008 0.002-0.004 0.002-0.004 0.004-0.006v-0.002l0.004-0.008 0.002-0.002 0.004-0.006 0.004-0.006v-0.002l0.004-0.008 0.002-0.002 0.002-0.006 0.004-0.006h0.002l0.004-0.008 0.002-0.002 0.004-0.006 0.002-0.006 0.002-0.002 0.006-0.008v-0.002l0.004-0.006 0.004-0.004 0.002-0.002 0.004-0.008 0.002-0.002 0.004-0.006 0.002-0.004 0.004-0.004 0.004-0.006 0.006-0.008 0.002-0.004 0.004-0.004 0.004-0.006 0.006-0.008 0.002-0.002 0.004-0.006 0.004-0.006h0.002l0.006-0.008 0.006-0.006 0.004-0.006 0.002-0.002 0.006-0.006v-0.002l0.006-0.006 0.004-0.004 0.002-0.002 0.006-0.006v-0.002l0.006-0.006 0.004-0.004 0.002-0.002 0.006-0.006v-0.002l0.006-0.006 0.004-0.002 0.002-0.004 0.006-0.006 0.017-0.013 0.006-0.008 0.002-0.002 0.004-0.004 0.006-0.004 0.002-0.002 0.012-0.011 0.006-0.004 0.002-0.002 0.006-0.006h0.002l0.006-0.006 0.002-0.002 0.006-0.004 0.004-0.006h0.002l0.007-0.006v-0.002l0.006-0.004 0.006-0.004 0.002-0.002 0.008-0.006 0.006-0.004 0.004-0.002 0.004-0.004 0.006-0.004 0.002-0.002 0.007-0.006 0.008-0.004 0.004-0.004 0.002-0.002 0.008-0.004v-0.002l0.008-0.004 0.002-0.002 0.006-0.004 0.006-0.004h0.002l0.008-0.006h0.002l0.006-0.004 0.004-0.002 0.004-0.002 0.008-0.006 0.007-0.004 0.002-0.002 0.006-0.002 0.006-0.004 0.002-0.002 0.008-0.004h0.002l0.006-0.004 0.004-0.002 0.004-0.002 0.008-0.006 0.010-0.004h0.002l0.006-0.004 0.006-0.002 0.002-0.002 0.008-0.004h0.002l0.006-0.004 0.006-0.002 0.011-0.006 0.008-0.004h0.004l0.006-0.002 0.006-0.004h0.002l0.008-0.004h0.002l0.008-0.004 0.004-0.002h0.004l0.008-0.004h0.002l0.007-0.004h0.002l0.006-0.002 0.008-0.002 0.002-0.002 0.007-0.002h0.002l0.008-0.004h0.004l0.004-0.002 0.007-0.004h0.002l0.008-0.002h0.004l0.006-0.002 0.006-0.002 0.004-0.002 0.008-0.002h0.002l0.008-0.002 0.004-0.002h0.004l0.009-0.002 0.010-0.002v-0.219zM22.444 15.216c0.555 0.117 1.015 0.243 1.464 0.393l-0.093-0.027-0.017 0.023c-0.132 0.168-0.265 0.317-0.405 0.458l0.001-0.001c-0.558 0.558-1.249 0.982-2.022 1.221l-0.035 0.009c0.246-0.258 0.471-0.58 0.664-0.958 0.172-0.332 0.32-0.71 0.443-1.12zM22.444 15.216c0.555 0.117 1.015 0.243 1.464 0.393l-0.093-0.027c0.587-0.757 0.959-1.707 1.009-2.741l0-0.011h-2.024c-0.021 0.864-0.147 1.677-0.357 2.386zM20.946 14.997c0.403 0.034 0.757 0.080 1.106 0.142l-0.072-0.011c-0.109 0.364-0.242 0.698-0.395 0.994-0.381 0.746-0.881 1.242-1.425 1.354v-1.183h0.004l0.004-0.002 0.008-0.002h0.002l0.010-0.002 0.002-0.002 0.007-0.002h0.004l0.006-0.002 0.008-0.002 0.009-0.004h0.004l0.006-0.002 0.006-0.002 0.004-0.002 0.008-0.002h0.002l0.007-0.004h0.004l0.006-0.002 0.008-0.004 0.009-0.002 0.002-0.002 0.006-0.002 0.006-0.002 0.004-0.002 0.010-0.004 0.008-0.002 0.004-0.002 0.006-0.002 0.006-0.004h0.002l0.009-0.004 0.008-0.004 0.004-0.002 0.004-0.002 0.008-0.004h0.002l0.007-0.004 0.004-0.002 0.006-0.002 0.006-0.004h0.002l0.007-0.006h0.002l0.008-0.004 0.004-0.002 0.004-0.002 0.006-0.004h0.002l0.008-0.006h0.002l0.008-0.004 0.004-0.004 0.004-0.002 0.008-0.004 0.008-0.006h0.004l0.004-0.004 0.006-0.004 0.002-0.002 0.007-0.004 0.002-0.002 0.006-0.004 0.004-0.002 0.004-0.004 0.008-0.004h0.002l0.006-0.006 0.002-0.002 0.011-0.008h0.002l0.015-0.012 0.004-0.002 0.004-0.004 0.006-0.004 0.002-0.002 0.008-0.006v-0.002l0.006-0.004 0.004-0.004 0.004-0.002 0.008-0.006 0.007-0.006 0.006-0.006 0.006-0.004 0.002-0.002 0.006-0.008h0.002l0.006-0.006 0.004-0.002 0.004-0.004 0.011-0.012 0.002-0.002 0.006-0.006 0.004-0.004 0.002-0.002 0.008-0.008c0.191-0.19 0.309-0.454 0.309-0.745 0-0 0-0.001 0-0.001v0-0.052l-0.002-0.002v-0.027l-0.002-0.004v-0.017l-0.002-0.006v-0.013l-0.002-0.002v-0.013l-0.002-0.004v-0.010l-0.002-0.004v-0.008l-0.002-0.004v-0.010l-0.002-0.004v-0.008l-0.002-0.002v-0.008l-0.002-0.004v-0.008l-0.002-0.004v-0.004l-0.002-0.004v-0.008l-0.002-0.002v-0.004l-0.002-0.004v-0.004l-0.004-0.015-0.002-0.006v-0.004l-0.002-0.002zM6.079 15.26c-0 0-0 0-0 0-0.129 0-0.234-0.105-0.234-0.234 0-0 0-0 0-0v0c0-0 0-0 0-0 0-0.129 0.105-0.234 0.234-0.234 0 0 0 0 0 0h4.527c0.13 0 0.235 0.105 0.235 0.235s-0.105 0.235-0.235 0.235h-4.527zM6.079 16.513c-0.13 0-0.234-0.107-0.234-0.235 0-0 0-0 0-0 0-0.129 0.105-0.234 0.234-0.234 0 0 0 0 0 0h9.055c0.128 0 0.235 0.105 0.235 0.235 0 0.128-0.107 0.235-0.235 0.235h-9.055zM6.079 17.766c-0 0-0 0-0 0-0.129 0-0.234-0.105-0.234-0.234 0-0 0-0 0-0v0c0-0 0-0 0-0 0-0.129 0.105-0.234 0.234-0.234 0 0 0 0 0 0h9.055c0.128 0 0.235 0.105 0.235 0.235s-0.107 0.235-0.235 0.235h-9.055zM2.095 11.7c0 0 0 0 0 0 0 0.13-0.105 0.235-0.235 0.235-0 0-0 0-0 0v0c-0 0-0 0-0 0-0.13 0-0.235-0.105-0.235-0.235 0-0 0-0 0-0v0-6.97c0-0.494 0.204-0.944 0.53-1.27 0.328-0.328 0.778-0.53 1.272-0.53h4.006c0.128 0 0.235 0.105 0.235 0.233 0 0.13-0.107 0.235-0.235 0.235h-4.006c-0.366 0-0.7 0.151-0.94 0.391-0.242 0.242-0.393 0.576-0.393 0.942v6.97zM28.572 3.397c-0 0-0 0-0 0-0.129 0-0.234-0.105-0.234-0.234 0-0 0-0 0-0v0c0-0.128 0.105-0.233 0.234-0.233 0.496 0 0.948 0.202 1.274 0.528s0.528 0.776 0.528 1.272v2.947c0 0.128-0.105 0.233-0.235 0.233s-0.235-0.105-0.235-0.233v-2.947c0-0.366-0.151-0.7-0.391-0.94-0.242-0.242-0.576-0.393-0.942-0.393zM19.924 14.699c0.322 0 0.584 0.261 0.584 0.586 0 0.002 0 0.004 0 0.006 0 0.322-0.261 0.584-0.584 0.584s-0.584-0.261-0.584-0.584c0-0.002 0-0.004 0-0.006v0c0-0.324 0.261-0.586 0.584-0.586zM20.874 13.682l-0.004 0.006-0.002 0.002v0.002l-0.004 0.006-0.002 0.002-0.006 0.009-0.002 0.002-0.004 0.006-0.002 0.002v0.002l-0.004 0.004-0.004 0.004-0.002 0.004v0.002l-0.004 0.004c-0.019 0.025-0.040 0.048-0.063 0.072l-0.006 0.004-0.013 0.013-0.006 0.006-0.006 0.006-0.006 0.006-0.008 0.004v0.002l-0.006 0.004-0.008 0.006-0.006 0.006-0.008 0.006-0.006 0.004v0.002l-0.008 0.004-0.006 0.006-0.008 0.004-0.008 0.006-0.006 0.004-0.007 0.006-0.008 0.004-0.008 0.004v0.002l-0.008 0.004-0.006 0.004-0.008 0.004-0.007 0.004-0.008 0.006-0.008 0.004-0.008 0.004-0.008 0.004-0.007 0.004-0.008 0.002-0.008 0.004-0.009 0.004-0.008 0.004-0.008 0.004-0.008 0.002-0.008 0.004-0.009 0.002-0.008 0.004-0.008 0.002-0.009 0.004-0.008 0.002-0.008 0.002-0.009 0.002-0.008 0.004-0.009 0.002-0.008 0.002-0.010 0.002-0.008 0.002-0.010 0.002-0.008 0.002h-0.009l-0.008 0.002-0.009 0.002h-0.010l-0.008 0.002-0.009 0.002h-0.017l-0.009 0.002h-0.158v0.217l0.004 0.002 0.004 0.002 0.008 0.002h0.002l0.010 0.002h0.002l0.007 0.002 0.006 0.002 0.004 0.002 0.008 0.002 0.009 0.002 0.004 0.002 0.006 0.002 0.006 0.002h0.004l0.008 0.004h0.002l0.007 0.002 0.004 0.002 0.006 0.002 0.008 0.002 0.009 0.004h0.002l0.006 0.004 0.006 0.002h0.004l0.010 0.004 0.008 0.004 0.004 0.002 0.006 0.002 0.006 0.002 0.002 0.002 0.009 0.004 0.008 0.004 0.006 0.002 0.004 0.002 0.008 0.002v0.002l0.007 0.004h0.004l0.006 0.004 0.006 0.002 0.002 0.002 0.007 0.004h0.002l0.008 0.006 0.004 0.002 0.004 0.002 0.006 0.004h0.002l0.008 0.004 0.002 0.002 0.008 0.004 0.004 0.002 0.004 0.002 0.008 0.006 0.008 0.004 0.004 0.002 0.004 0.004 0.006 0.002 0.002 0.002 0.007 0.006h0.002l0.008 0.004 0.004 0.004 0.004 0.002 0.006 0.004 0.002 0.002 0.008 0.004 0.002 0.002 0.004 0.004 0.006 0.004 0.004 0.002 0.006 0.006 0.008 0.006 0.004 0.002 0.004 0.002 0.006 0.006 0.002 0.002 0.008 0.004v0.002l0.006 0.004 0.006 0.004 0.002 0.002 0.008 0.006 0.007 0.006 0.002 0.002 0.004 0.006 0.006 0.004 0.002 0.002 0.008 0.006 0.006 0.006 0.004 0.004 0.004 0.002 0.006 0.006v0.002l0.008 0.006 0.002 0.002 0.008 0.008 0.004 0.004 0.006 0.006 0.017 0.017 0.006 0.008 0.004 0.002 0.002 0.004 0.012 0.011 0.004 0.004 0.002 0.004 0.006 0.006 0.006 0.006 0.004 0.004 0.002 0.002 0.004 0.008h0.002l0.004 0.006 0.004 0.004 0.002 0.004 0.006 0.006v0.002l0.004 0.004 0.004 0.006 0.002 0.002 0.006 0.006v0.002l0.004 0.006 0.004 0.006 0.002 0.002 0.004 0.006 0.002 0.002 0.004 0.006 0.004 0.004 0.002 0.002 0.004 0.008 0.002 0.002 0.002 0.006 0.004 0.004 0.002 0.002 0.004 0.008 0.002 0.002 0.004 0.006 0.004 0.006 0.004 0.008 0.002 0.002 0.004 0.006 0.002 0.006 0.002 0.002 0.004 0.008 0.002 0.002 0.002 0.004 0.004 0.008 0.006 0.008v0.004l0.004 0.004 0.002 0.006 0.002 0.002 0.004 0.008 0.002 0.002 0.006 0.011v0.002l0.006 0.009 0.002 0.006 0.004 0.008 0.002 0.008 0.002 0.004 0.002 0.004 0.004 0.008 0.004 0.008 0.002 0.004 0.002 0.004 0.002 0.008 0.004 0.008 0.002 0.004v0.006l0.004 0.008 0.004 0.008 0.002 0.004v0.004l0.004 0.008 0.002 0.008 0.004 0.009 0.002 0.008 0.002 0.008 0.002 0.006 0.002 0.004 0.002 0.008 0.002 0.008 0.002 0.006 0.002 0.002 0.002 0.011 0.002 0.008c0.403 0.034 0.757 0.080 1.106 0.142l-0.072-0.011c0.206-0.677 0.33-1.459 0.351-2.299h-1.351v0.515l-0.002 0.009v0.017l-0.002 0.009v0.009l-0.002 0.008v0.010l-0.002 0.009-0.002 0.008-0.002 0.010v0.008l-0.002 0.009-0.002 0.008-0.002 0.009-0.002 0.008-0.004 0.010-0.002 0.008-0.002 0.008v0.002l-0.002 0.008-0.004 0.008v0.002l-0.002 0.006v0.002l-0.002 0.008h-0.002l-0.002 0.008-0.002 0.008-0.002 0.002-0.002 0.008-0.004 0.008-0.002 0.008h-0.002l-0.002 0.008v0.002l-0.004 0.006v0.002l-0.004 0.008-0.004 0.008-0.004 0.008-0.004 0.008-0.008 0.015-0.004 0.008-0.004 0.008-0.004 0.006v0.002l-0.004 0.006-0.006 0.008-0.004 0.007z"></path>
</symbol>
<symbol id="icon-calendar" viewBox="0 0 32 32">
<path fill="#fff" style="fill: var(--color1, #fff)" d="M4.493 6.995v24.514h23.014v-24.514z"></path>
<path fill="#889ebd" style="fill: var(--color2, #889ebd)" d="M4.493 6.995h23.014v2.001h-23.014z"></path>
<path fill="#6a86ac" style="fill: var(--color3, #6a86ac)" d="M15.5 6.995h12.007v2.001h-12.007z"></path>
<path fill="#95c11f" style="fill: var(--color4, #95c11f)" d="M27.507 31.509h-4.002s4.087-1.992 4.002-5.003v5.003z"></path>
<path fill="#6a86ac" style="fill: var(--color3, #6a86ac)" d="M27.507 26.006h-5.503v5.503c0 0 5.224 0.273 5.503-5.503z"></path>
<path fill="#aacd4c" style="fill: var(--color5, #aacd4c)" d="M4.447 0.491h23.060v6.504h-23.060z"></path>
<path fill="#95c11f" style="fill: var(--color4, #95c11f)" d="M16 0.491h11.507v6.504h-11.507z"></path>
<path fill="#1d1d1b" style="fill: var(--color6, #1d1d1b)" d="M6.495 8.505h1.001v0.982h-1.001zM8.495 8.505h1.001v0.982h-1.001zM10.497 8.505h1.001v0.982h-1.001zM12.498 8.505h1.001v0.982h-1.001zM14.499 8.505h1.001v0.982h-1.001zM16.5 8.505h1.001v0.982h-1.001zM18.502 8.505h1.001v0.982h-1.001zM20.502 8.505h1.001v0.982h-1.001zM22.504 8.505h1.001v0.982h-1.001zM24.505 8.505h1.001v0.982h-1.001z"></path>
<path fill="#1d1d1b" style="fill: var(--color6, #1d1d1b)" d="M4.002 32h23.995v-32h-23.995v32zM4.984 0.982h22.032v5.522h-22.032v-5.522zM27.016 31.018h-1.723c0.69-0.46 1.265-1.035 1.709-1.705l0.014-0.022v1.727zM22.488 31.001l0.006-4.505h4.498c-0.232 2.376-2.128 4.272-4.504 4.505zM21.513 25.515l-0.007 5.503h-16.522v-21.532h0.51v-0.982h-0.51v-1.019h22.032v1.019h-0.51v0.982h0.51v16.028h-5.503z"></path>
<path fill="#fff" style="fill: var(--color1, #fff)" d="M11.388 2.158l-0.891 0.891-0.891-0.891-0.694 0.694 0.891 0.891-0.891 0.891 0.694 0.694 0.891-0.891 0.891 0.891 0.694-0.694-0.891-0.891 0.891-0.891zM23.089 2.864l-0.694-0.694-0.891 0.891-0.891-0.891-0.694 0.694 0.891 0.891-0.891 0.891 0.694 0.694 0.891-0.891 0.891 0.891 0.694-0.694-0.891-0.891z"></path>
<path fill="#1d1d1b" style="fill: var(--color6, #1d1d1b)" d="M9.496 13.508h13.008v0.982h-13.008z"></path>
<path fill="#6a86ac" style="fill: var(--color3, #6a86ac)" d="M14.499 15.509h3.002v0.982h-3.002z"></path>
<path fill="#1d1d1b" style="fill: var(--color6, #1d1d1b)" d="M9.496 17.511h1.001v0.982h-1.001zM11.497 17.511h1.001v0.982h-1.001zM13.498 17.511h1.001v0.982h-1.001zM15.5 17.511h1.001v0.982h-1.001zM17.501 17.511h1.001v0.982h-1.001zM19.502 17.511h1.001v0.982h-1.001z"></path>
<path fill="#6a86ac" style="fill: var(--color3, #6a86ac)" d="M21.503 17.511h1.001v0.982h-1.001z"></path>
<path fill="#1d1d1b" style="fill: var(--color6, #1d1d1b)" d="M9.496 19.511h1.001v0.982h-1.001zM11.497 19.511h1.001v0.982h-1.001zM13.498 19.511h1.001v0.982h-1.001zM15.5 19.511h1.001v0.982h-1.001zM17.501 19.511h1.001v0.982h-1.001zM19.502 19.511h1.001v0.982h-1.001z"></path>
<path fill="#6a86ac" style="fill: var(--color3, #6a86ac)" d="M21.503 19.511h1.001v0.982h-1.001z"></path>
<path fill="#1d1d1b" style="fill: var(--color6, #1d1d1b)" d="M9.496 21.513h1.001v0.982h-1.001zM11.497 21.513h1.001v0.982h-1.001zM13.498 21.513h1.001v0.982h-1.001zM15.5 21.513h1.001v0.982h-1.001zM17.501 21.513h1.001v0.982h-1.001zM19.502 21.513h1.001v0.982h-1.001z"></path>
<path fill="#6a86ac" style="fill: var(--color3, #6a86ac)" d="M21.503 21.513h1.001v0.982h-1.001z"></path>
<path fill="#1d1d1b" style="fill: var(--color6, #1d1d1b)" d="M9.496 23.514h1.001v0.982h-1.001zM11.497 23.514h1.001v0.982h-1.001zM13.498 23.514h1.001v0.982h-1.001zM15.5 23.514h1.001v0.982h-1.001zM17.501 23.514h1.001v0.982h-1.001zM19.502 23.514h1.001v0.982h-1.001z"></path>
<path fill="#6a86ac" style="fill: var(--color3, #6a86ac)" d="M21.503 23.514h1.001v0.982h-1.001z"></path>
<path fill="#1d1d1b" style="fill: var(--color6, #1d1d1b)" d="M5.994 29.017h1.001v0.982h-1.001z"></path>
<path fill="#6a86ac" style="fill: var(--color3, #6a86ac)" d="M7.995 29.017h1.001v0.982h-1.001z"></path>
<path fill="#1d1d1b" style="fill: var(--color6, #1d1d1b)" d="M9.996 29.017h1.001v0.982h-1.001z"></path>
</symbol>
<symbol id="icon-contract" viewBox="0 0 32 32">
<path fill="#f4f4f4" style="fill: var(--color1, #f4f4f4)" d="M25.599 0.28h-25.098c-0.277 0-0.501 0.224-0.501 0.501v0 30.438c0 0.276 0.224 0.501 0.501 0.501v0h20.292c0.138 0 0.263-0.056 0.354-0.147l4.806-4.806c0.091-0.091 0.147-0.216 0.147-0.354 0-0 0-0 0-0v0-25.632c-0-0.276-0.224-0.501-0.501-0.501v0z"></path>
<path fill="#e9e9e9" style="fill: var(--color2, #e9e9e9)" d="M0.501 0.28c-0.277 0-0.501 0.224-0.501 0.501v0 30.438c0 0.276 0.224 0.501 0.501 0.501v0h14.518l-13.096-31.439h-1.421zM20.809 26.914v4.805c0.132-0.004 0.251-0.059 0.337-0.146v0l4.806-4.806c0.090-0.090 0.145-0.215 0.145-0.352 0-0.001 0-0.001 0-0.002v0h-4.788c-0.276 0-0.501 0.224-0.501 0.501v0z"></path>
<path fill="#6ddae1" style="fill: var(--color3, #6ddae1)" d="M16.554 8.39h3.671v10.146h-3.671zM5.874 8.39h3.671v10.146h-3.671z"></path>
<path fill="#4fc4d4" style="fill: var(--color4, #4fc4d4)" d="M16.554 8.39h3.671v1.713h-3.671zM5.874 8.39h3.671v1.713h-3.671z"></path>
<path fill="#6ddae1" style="fill: var(--color3, #6ddae1)" d="M19.994 6.5l-6.675-4.272c-0.076-0.050-0.17-0.079-0.27-0.079s-0.194 0.029-0.272 0.080l0.002-0.001-6.675 4.272c-0.039 0.025-0.072 0.054-0.101 0.087l-0 0.001h14.092c-0.029-0.033-0.063-0.063-0.1-0.087l-0.002-0.001z"></path>
<path fill="#ffd791" style="fill: var(--color5, #ffd791)" d="M21.861 6.421h-17.622c-0.276 0-0.501 0.224-0.501 0.501v0 1.602c0 0.277 0.224 0.501 0.501 0.501v0h17.622c0.276 0 0.501-0.224 0.501-0.501v0-1.602c0-0.277-0.224-0.501-0.501-0.501v0zM21.861 18.169h-17.622c-0.276 0-0.501 0.224-0.501 0.501v0 1.602c0 0.276 0.224 0.501 0.501 0.501v0h17.622c0.276 0 0.501-0.224 0.501-0.501v0-1.602c0-0.276-0.224-0.501-0.501-0.501v0z"></path>
<path fill="#96ca62" style="fill: var(--color6, #96ca62)" d="M13.984 13.096h-0.434v-1.402h1.101c0.277 0 0.501-0.224 0.501-0.501s-0.224-0.501-0.501-0.501h-1.101v-0.567c0-0.277-0.224-0.501-0.501-0.501s-0.501 0.224-0.501 0.501v0.567h-0.434c-0.644 0-1.168 0.524-1.168 1.168v1.068c0 0.644 0.524 1.168 1.168 1.168h0.434v1.402h-1.101c-0.277 0-0.501 0.224-0.501 0.501s0.224 0.501 0.501 0.501h1.101v0.567c0 0.276 0.224 0.501 0.501 0.501s0.501-0.224 0.501-0.501v-0.567h0.434c0.644 0 1.168-0.524 1.168-1.168v-1.068c0-0.644-0.524-1.168-1.168-1.168zM12.115 13.096c-0.092-0-0.167-0.075-0.167-0.167v0-1.068c0-0.092 0.075-0.167 0.167-0.167h0.434v1.402h-0.434zM14.151 15.332c-0 0.092-0.075 0.167-0.167 0.167h-0.434v-1.402h0.434c0.092 0 0.167 0.075 0.167 0.167v0 1.068z"></path>
<path fill="#bdbcbc" style="fill: var(--color7, #bdbcbc)" d="M12.783 26.113h-6.408c-0.277 0-0.501-0.224-0.501-0.501s0.224-0.501 0.501-0.501h6.408c0.276 0 0.501 0.224 0.501 0.501s-0.224 0.501-0.501 0.501c0 0-0 0-0 0v0zM14.385 28.783h-8.010c-0.277 0-0.501-0.224-0.501-0.501s0.224-0.501 0.501-0.501h8.010c0.277 0 0.501 0.224 0.501 0.501s-0.224 0.501-0.501 0.501zM12.783 23.443h-6.408c-0.277 0-0.501-0.224-0.501-0.501s0.224-0.501 0.501-0.501h6.408c0.276 0 0.501 0.224 0.501 0.501s-0.224 0.501-0.501 0.501c0 0-0 0-0 0v0z"></path>
<path fill="#ffd791" style="fill: var(--color5, #ffd791)" d="M15.664 24.53c-0.053 0.053-0.095 0.119-0.12 0.192l-0.001 0.004-1.133 3.398c-0.016 0.047-0.026 0.102-0.026 0.158 0 0.277 0.224 0.501 0.501 0.501 0.057 0 0.111-0.009 0.162-0.027l-0.004 0.001 3.398-1.133c0.077-0.026 0.142-0.067 0.196-0.121l0.721-0.721-2.974-2.974-0.722 0.721z"></path>
<path fill="#918f90" style="fill: var(--color8, #918f90)" d="M14.41 28.124c-0.128 0.384 0.249 0.761 0.633 0.633l1.134-0.378-1.389-1.389-0.378 1.134z"></path>
<path fill="#e9e9e9" style="fill: var(--color2, #e9e9e9)" d="M31.853 13.579l-2.266-2.266c-0.091-0.091-0.216-0.147-0.354-0.147s-0.263 0.056-0.354 0.147l-1.904 1.904c-0.091 0.091-0.147 0.216-0.147 0.354s0.056 0.263 0.147 0.354l2.266 2.266c0.091 0.091 0.216 0.147 0.354 0.147s0.263-0.056 0.354-0.147l1.904-1.904c0.091-0.091 0.147-0.216 0.147-0.354s-0.056-0.263-0.147-0.354v0z"></path>
<path fill="#ff8c78" style="fill: var(--color9, #ff8c78)" d="M26.976 13.218l2.973 2.974-11.296 11.296-2.973-2.974z"></path>
<path fill="#d3d2d2" style="fill: var(--color10, #d3d2d2)" d="M29.588 11.314l0.702 0.702-2.612 2.612-0.702-0.702c-0.091-0.091-0.147-0.216-0.147-0.354s0.056-0.263 0.147-0.354l1.904-1.904c0.091-0.091 0.216-0.147 0.354-0.147s0.263 0.056 0.354 0.147v0z"></path>
<path fill="#df7a6e" style="fill: var(--color11, #df7a6e)" d="M16.736 25.57l-1.056-1.056 11.296-11.296 1.056 1.056z"></path>
</symbol>
<symbol id="icon-certificate" viewBox="0 0 32 32">
<path fill="#e7e7e7" style="fill: var(--color1, #e7e7e7)" d="M23.081 27.779h-23.081v-27.779h23.081z"></path>
<path fill="#bec3c6" style="fill: var(--color2, #bec3c6)" d="M4.085 5.175h14.843v0.681h-14.843zM4.085 9.328h14.843v0.681h-14.843zM4.085 13.549h14.843v0.681h-14.843zM4.085 17.702h14.843v0.681h-14.843zM4.085 21.923h14.843v0.681h-14.843z"></path>
<path fill="#f05453" style="fill: var(--color3, #f05453)" d="M27.234 32l-3.2-1.974-3.2 1.974v-11.166h6.4z"></path>
<path fill="#60c3ab" style="fill: var(--color4, #60c3ab)" d="M23.83 11.166l1.702-1.226 1.089 1.77 2.043-0.34 0.272 2.043 1.974 0.477-0.545 1.974 1.634 1.294-1.362 1.566 1.021 1.77-1.906 0.885 0.204 2.111-2.111 0.068-0.681 1.906-1.906-0.749-1.43 1.498-1.43-1.498-1.906 0.749-0.681-1.906-2.111-0.068 0.136-2.111-1.838-0.885 1.021-1.77-1.43-1.566 1.702-1.294-0.613-1.974 2.043-0.477 0.272-2.043 2.043 0.34 1.089-1.77z"></path>
<path fill="#e6d8cc" style="fill: var(--color5, #e6d8cc)" d="M29.209 18.043c0 2.971-2.408 5.379-5.379 5.379s-5.379-2.408-5.379-5.379c0-2.971 2.408-5.379 5.379-5.379s5.379 2.408 5.379 5.379z"></path>
<path fill="#e14a4a" style="fill: var(--color6, #e14a4a)" d="M27.506 18.043c0 2.031-1.646 3.677-3.677 3.677s-3.677-1.646-3.677-3.677c0-2.031 1.646-3.677 3.677-3.677s3.677 1.646 3.677 3.677z"></path>
<symbol id="icon-top" viewBox="0 0 32 32">
<path fill="#e5e5e5" style="fill: var(--color1, #e5e5e5)" d="M16 0c-8.836 0-16 7.163-16 16s7.163 16 16 16 16-7.163 16-16-7.163-16-16-16z"></path>
<path fill="#000" style="fill: var(--color2, #000)" d="M4 20.979h24v0.783h-24z"></path>
<path fill="#000" style="fill: var(--color2, #000)" d="M27.814 20.979h-23.814v0.788l1.191 1.099h21.433l1.191-1.099z"></path>
<path fill="#fff" style="fill: var(--color3, #fff)" d="M6.232 20.979v-12.912c0-0.309 0.251-0.561 0.558-0.561h18.233c0.307 0 0.558 0.253 0.558 0.561v12.912z"></path>
<path fill="#000" style="fill: var(--color2, #000)" d="M25.953 20.979h-0.744v-12.912c0-0.103-0.085-0.189-0.186-0.189h-18.233c-0.101 0-0.186 0.087-0.186 0.189v12.912h-0.744v-12.912c0-0.516 0.417-0.934 0.93-0.934h18.233c0.513 0 0.93 0.418 0.93 0.934l0 12.912z"></path>
<path fill="#f00000" style="fill: var(--color5, #f00000)" d="M21.256 10.917l-5.256-5.178-5.255 5.178h2.255v7.077h6v-7.077z"></path>
</symbol>
</symbol>
<symbol id="icon-phone-contacts" viewBox="0 0 32 32">
<path fill="#52c306" style="fill: var(--color1, #52c306)" d="M27.988 25.038c-1.012-1.913-4.746-4.102-4.746-4.102-0.845-0.482-1.864-0.535-2.346 0.323 0 0-1.213 1.455-1.522 1.664-1.41 0.955-2.715 0.918-4.033-0.4l-6.126-6.126c-1.318-1.318-1.355-2.624-0.4-4.033 0.209-0.309 1.664-1.522 1.664-1.522 0.858-0.482 0.805-1.501 0.323-2.346 0 0-2.188-3.734-4.102-4.746-0.284-0.154-0.622-0.244-0.981-0.244-0.579 0-1.104 0.235-1.483 0.615l-1.353 1.353c-4.291 4.291-2.178 9.136 2.113 13.427l7.844 7.844c4.291 4.291 9.136 6.404 13.427 2.113l1.353-1.353c0.379-0.38 0.613-0.904 0.613-1.483 0-0.359-0.090-0.698-0.249-0.993l0.006 0.011z"></path>
<path fill="#388f04" style="fill: var(--color2, #388f04)" d="M21.15 31.74c-0.562 0-1.135-0.068-1.72-0.203-2.204-0.509-4.549-1.995-6.97-4.417l-7.843-7.844c-5.33-5.329-6.061-10.232-2.113-14.18l1.353-1.353c0.474-0.478 1.132-0.774 1.858-0.774 0.452 0 0.876 0.114 1.247 0.316l-0.014-0.007c2.025 1.071 4.22 4.79 4.312 4.948 0.392 0.686 0.514 1.391 0.348 1.99-0.125 0.451-0.41 0.817-0.825 1.065-0.651 0.544-1.411 1.219-1.53 1.384-0.855 1.261-0.754 2.265 0.337 3.356l6.126 6.126c1.090 1.090 2.093 1.191 3.358 0.335 0.163-0.118 0.837-0.878 1.382-1.529 0.247-0.415 0.614-0.7 1.064-0.825 0.599-0.167 1.304-0.044 1.985 0.345 0.164 0.096 3.883 2.292 4.954 4.316 0.195 0.357 0.309 0.782 0.309 1.233 0 0.726-0.296 1.384-0.774 1.858l-1.353 1.353c-1.668 1.667-3.509 2.507-5.491 2.507zM5.716 4.037c-0.404 0-0.802 0.158-1.104 0.46l-1.353 1.353c-3.503 3.504-2.792 7.767 2.113 12.673l7.843 7.844c4.905 4.906 9.169 5.616 12.673 2.113l1.353-1.353c0.284-0.282 0.46-0.673 0.46-1.105 0-0.268-0.068-0.521-0.187-0.741l0.004 0.008c-0.772-1.459-3.543-3.304-4.545-3.891-0.414-0.236-0.853-0.325-1.165-0.24-0.192 0.054-0.338 0.173-0.446 0.365l-0.055 0.081c-0.379 0.455-1.298 1.537-1.632 1.764-1.68 1.138-3.264 0.982-4.71-0.464l-6.127-6.127c-1.446-1.446-1.603-3.031-0.465-4.71 0.227-0.334 1.309-1.253 1.764-1.633l0.080-0.055c0.192-0.108 0.311-0.254 0.365-0.446 0.087-0.314-0.004-0.752-0.244-1.171-0.018-0.030-2.131-3.61-3.888-4.539-0.213-0.115-0.465-0.182-0.734-0.183h-0z"></path>
<path fill="#388f04" style="fill: var(--color2, #388f04)" d="M21.333 25.872c-0.018 0-0.037-0.001-0.055-0.003-3.678-0.382-6.085-2.719-6.186-2.818-0.095-0.096-0.153-0.228-0.153-0.374 0-0.295 0.239-0.533 0.533-0.533 0.143 0 0.273 0.056 0.368 0.148l-0-0c0.022 0.021 2.255 2.174 5.548 2.516 0.267 0.032 0.471 0.257 0.471 0.53 0 0.292-0.234 0.529-0.525 0.534h-0zM9.598 17.338c-0 0-0 0-0 0-0.129 0-0.247-0.046-0.339-0.123l0.001 0.001c-0.122-0.1-3.007-2.515-3.392-6.223-0.002-0.016-0.003-0.035-0.003-0.055 0-0.275 0.208-0.502 0.476-0.531l0.002-0c0.016-0.002 0.034-0.003 0.053-0.003 0.276 0 0.503 0.208 0.533 0.476l0 0.002c0.339 3.264 2.983 5.489 3.009 5.511 0.118 0.099 0.192 0.246 0.192 0.411 0 0.295-0.239 0.534-0.533 0.534h-0z"></path>
<path fill="#efce4a" style="fill: var(--color3, #efce4a)" d="M14.594 0.26c-0.295 0-0.533 0.239-0.533 0.533s0.239 0.533 0.533 0.533v0c9.010 0 16.339 7.33 16.339 16.339 0 0.295 0.239 0.533 0.533 0.533s0.533-0.239 0.533-0.533v0c0-9.598-7.808-17.406-17.406-17.406z"></path>
<path fill="#efce4a" style="fill: var(--color3, #efce4a)" d="M14.594 4.009c-0.295 0-0.533 0.239-0.533 0.533s0.239 0.533 0.533 0.533v0c6.942 0 12.589 5.648 12.589 12.589 0 0.295 0.239 0.533 0.533 0.533s0.533-0.239 0.533-0.533v0c0.001-7.529-6.126-13.656-13.656-13.656z"></path>
<path fill="#efce4a" style="fill: var(--color3, #efce4a)" d="M14.594 7.759c-0.295 0-0.533 0.239-0.533 0.533s0.239 0.533 0.533 0.533v0c4.875 0 8.84 3.966 8.84 8.84 0 0.295 0.239 0.533 0.533 0.533s0.533-0.239 0.533-0.533v0c0-5.463-4.444-9.907-9.907-9.907z"></path>
</symbol>
<symbol id="icon-smartPhone" viewBox="0 0 32 32">
<path d="M22.387 0h-12.773c-1.112 0-2.017 0.905-2.017 2.017v27.966c0 1.112 0.905 2.017 2.017 2.017h12.773c1.112 0 2.017-0.905 2.017-2.017v-27.966c0-1.112-0.905-2.017-2.017-2.017zM22.387 31.193h-12.773c-0.601 0-1.098-0.443-1.191-1.019 0.29 0.565 0.872 0.955 1.549 0.955h12.057c0.677 0 1.259-0.391 1.549-0.955-0.093 0.577-0.589 1.019-1.191 1.019zM14.703 1.494c0.019 0.051 0.068 0.087 0.125 0.087 0 0 0 0 0 0h2.196c0.060 0 0.111-0.040 0.128-0.094l0-0.001 0.090-0.295c0.005-0.018-0.003-0.034-0.005-0.053h4.79c0.816 0 1.479 0.663 1.479 1.479v26.764c0 0.816-0.663 1.479-1.479 1.479h-12.056c-0.816 0-1.479-0.663-1.479-1.479v-26.763c0-0.816 0.663-1.479 1.479-1.479h4.621c-0.002 0.020-0.010 0.040-0.002 0.060l0.111 0.295zM14.855 1.139h2.122l-0.053 0.173h-2.004l-0.065-0.173zM22.028 0.87h-12.057c-0.677 0-1.259 0.391-1.549 0.955 0.093-0.576 0.589-1.019 1.191-1.019h12.773c0.601 0 1.098 0.443 1.191 1.019-0.29-0.564-0.872-0.955-1.549-0.955z"></path>
<path d="M9.008 3.429v23.328c0 0.111 0.090 0.202 0.202 0.202h13.412c0.111-0 0.202-0.090 0.202-0.202v0-23.328c-0-0.111-0.090-0.202-0.202-0.202h-13.412c-0.111 0-0.202 0.090-0.202 0.202v0zM9.412 3.63h13.009v22.924h-13.009v-22.924zM16.37 28.135h-0.773c-0.371 0-0.672 0.302-0.672 0.672v0.236c0 0.371 0.301 0.672 0.672 0.672h0.773c0.371 0 0.672-0.302 0.672-0.672v-0.236c0-0.371-0.302-0.672-0.672-0.672zM16.773 29.042c0 0.222-0.181 0.403-0.403 0.403h-0.773c-0.222 0-0.403-0.181-0.403-0.403v-0.236c0-0.222 0.181-0.403 0.403-0.403h0.773c0.222 0 0.403 0.181 0.403 0.403v0.236z"></path>
<path d="M19.608 2.006c0 0.217-0.176 0.392-0.392 0.392s-0.392-0.176-0.392-0.392c0-0.217 0.176-0.392 0.392-0.392s0.392 0.176 0.392 0.392z"></path>
<path d="M20.313 28.736h-0.269v-0.101l-0.29 0.167 0.29 0.168v-0.099h0.269c0.334 0 0.471 0.015 0.471 0.168 0 0.16-0.067 0.168-0.28 0.168h-0.347c-0.037 0-0.067 0.030-0.067 0.067s0.030 0.067 0.067 0.067h0.347c0.185 0 0.415 0 0.415-0.302s-0.308-0.303-0.605-0.303zM11.933 28.488h-0.656c-0.037 0-0.067 0.030-0.067 0.067v0.639c0 0.037 0.030 0.067 0.067 0.067h0.656c0.037 0 0.067-0.030 0.067-0.067v-0.639c0-0.037-0.030-0.067-0.067-0.067zM11.866 29.126h-0.521v-0.269h0.236v-0.236h0.286v0.504z"></path>
</symbol>
</defs>
</svg>
