<svg version="1.0" xmlns="http://www.w3.org/2000/svg" width="300" height="300" viewBox="0 0 225 225"><path d="M106 27.6c-3 2-5.9 4-6.3 4.4-.9.8 1.2 5 2.5 5 .5 0 3-1.6 5.7-3.5 2.6-1.9 5.5-3.5 6.3-3.5.8 0 22.6 14.8 48.4 32.8 43.7 30.6 46.9 33.1 47.2 36l.3 3.2h-7.8c-4.8 0-8.4.5-9.1 1.2-.9.9-1.2 8.2-1.2 26.5V155h-42v6h22.3c20.4 0 22.5-.2 24-1.8s1.7-5 1.7-26.5V108h7.9c9.6 0 10.3-.6 9.9-9.1l-.3-6.3-49-34.3c-38.2-26.7-49.6-34.3-52-34.3-1.8 0-5.2 1.5-8.5 3.6zm15.6 1.6c2.7 1.8 5.4 3.6 5.9 4.1.6.4 5.3 3.8 10.5 7.4 5.2 3.7 9.7 7 9.8 7.5.2.4.8.8 1.2.8.5 0 5.5 3.3 11.1 7.2 5.6 4 13.4 9.5 17.3 12.2 3.9 2.7 7.3 5.3 7.4 5.7.2.5.8.9 1.4.9.6 0 5.5 3.3 11 7.2 5.5 4 10.8 7.8 11.8 8.3 4.2 2.4 4.7 3.4 4.6 9.2l-.1 5.8-7.7.3c-4.8.2-8 .8-8.7 1.6-1 1.2-1.7 17.9-2.1 48.3v3.3h-21.5c-13.7 0-21.5-.4-21.5-1s7.3-1 19.9-1c15.3 0 20.1-.3 21-1.3.7-.9 1.2-9.9 1.3-26.3l.3-24.9 7.3-.1c8.2-.2 10.3-1.4 10-5.6-.3-3.2-2.3-5.8-6.8-8.4-1.6-1-3-2.2-3-2.6 0-.4-.6-.8-1.4-.8-.8 0-1.6-.4-1.8-.8-.1-.5-2.8-2.5-5.8-4.5s-7.3-4.9-9.5-6.5c-3.3-2.4-14.2-10.1-34.9-24.5-1.7-1.2-3.3-2.4-3.6-2.8-.3-.3-2.3-1.6-4.5-2.9-2.2-1.3-4.2-2.7-4.5-3-.3-.4-3.3-2.6-6.7-4.9-3.5-2.4-6.3-4.7-6.3-5.2s-.3-.8-.7-.7c-.5.1-2.2-.5-3.9-1.5-3.4-1.8-6.7-1.6-9.3.6-.9.7-2.8 2.1-4.3 3-2.3 1.4-2.8 1.5-2.8.3 0-1.4 5.7-5.5 9.5-6.7 3.7-1.3 5.1-.9 10.1 2.3zM62.4 32c-7.6 2.5-13.6 8-17.1 15.7-2.1 4.6-2.5 6.6-2.1 12.6.2 4.5 1.1 8.7 2.3 11.2 1.9 3.8 2.3 4 6.9 4.3l4.9.3-2.6-3c-3.6-4.3-5-9.4-4.5-16.1.5-7 3.4-11.8 9.6-16 13.2-8.8 30.9-.9 33.7 15.1.9 4.9-1.3 12.7-4.7 16.5l-3 3.4h9.9l2.4-5.2c3.1-6.6 3.2-16.2.2-22.9C92.1 34 76.9 27.2 62.4 32zm20.3 3.1c5.6 2.5 11.9 9.2 13.7 14.7 2.9 8.3 1.4 21.2-2.6 23.3-2.2 1.2-2.2 1.1.2-4.6 8.6-20.2-13.4-41.1-32.6-30.9-6.5 3.4-8.9 5.7-11.5 11.3-2.8 6-2.8 15.4 0 21 1.9 3.6 1.9 3.9.3 3.7-1.2-.2-2.3-2.3-3.7-7-1.9-6.6-1.9-6.9-.1-13.9 2-8.1 4.4-11.2 12.2-16.3 7.3-4.7 15.4-5.1 24.1-1.3zM24 83.9l-12.5 8.8-.3 6.2c-.4 8.5.3 9.1 9.9 9.1H29v41.8c0 39.3.1 42 1.8 43.5s7.7 1.7 65 1.7H159v-6H35v-42.3c0-31.6-.3-42.6-1.2-43.5-.7-.7-4.3-1.2-9.1-1.2h-7.8l.3-3.2c.3-2.8 1.6-4.1 12-11.1 11.5-7.9 11.6-8 10.1-10.4-.8-1.2-1.8-2.3-2.2-2.3-.3 0-6.2 4-13.1 8.9zM37 79c-.8.5-1.1 1-.5 1 .5 0-1.4 1.6-4.4 3.5-2.9 1.9-5.6 3.5-6.1 3.5s-1 .4-1.2.8c-.1.5-2.4 2.3-5 4.1-4.1 2.7-4.8 3.7-4.8 6.5 0 4.7 1.9 5.8 10.3 6l7.2.1.3 42.1c.2 34.8.5 42.4 1.6 43.3 1.1.9 17.1 1.2 61.5 1.1 40.7 0 60.1.3 60.1 1s-20 .9-62.3.8l-62.2-.3-.3-41.9c-.1-28.1-.6-42.3-1.3-43.2-.7-.8-4-1.4-8.7-1.6l-7.7-.3-.3-5.7-.3-5.7 4.8-3.5c2.6-1.9 5.9-4.1 7.3-4.8 1.4-.7 2.7-1.6 3-1.9 1.1-1.4 8.3-5.9 9.4-5.9.6 0 .4.5-.4 1z"/><path d="M55.5 87.9c3.4 4.7 3.5 5.1 3.5 14.5v9.6h25v-9.3c0-8.9.1-9.4 3.5-14.5l3.6-5.2H52l3.5 4.9zm30.9-1.7c-.4.7-1.6 2.5-2.6 4-1.4 2-1.8 4.5-1.8 11.2v8.7l-10.2-.3-10.3-.3-.5-9c-.4-6.3-1-9.7-2.2-11.5-1-1.3-1.8-2.8-1.8-3.2 0-.5 6.8-.8 15.1-.8 11.7 0 14.9.3 14.3 1.2zM61.3 122l2.2 5h8.1c5.6 0 8.3-.4 8.7-1.3.3-.6 1.2-2.9 2.1-5L84 117H59.1l2.2 5zm18.3-.1c-1.5 2.8-1.7 2.9-7.8 2.4-6.5-.5-8.8-1.5-8.8-3.9 0-1.1 2-1.4 9-1.4h9.1l-1.5 2.9zM124.5 132.2c-.3.8-.4 6.8-.3 13.4l.3 11.9h5v-13c0-12.7 0-13-2.3-13.3-1.2-.2-2.4.3-2.7 1zm3.4 12.3c0 5.8-.5 10.5-1 10.5s-.9-4.7-.9-10.5c0-6.4.4-10.5 1-10.5s1 4 .9 10.5zM68 145.3c0 9 .4 13.7 1.2 14.5.8.8 6.3 1.2 18 1.2H104v-6H74v-23h-6v13.3zm4-1c0 6.7.4 10.7 1.2 11.5.8.8 5.5 1.2 14.4 1.2 8 0 13.5.4 13.9 1 .4.7-4.5 1-15.2.8l-15.8-.3-.3-12.3c-.2-7.9.1-12.2.8-12.2.6 0 1 3.9 1 10.3z"/><path d="M113.8 142.7c-10.6 11.1-2.7 30.3 12.4 30.3 11.1 0 18.8-7.5 18.8-18.1 0-4.4-2.6-10.4-5.9-13.3-1.7-1.5-2.3-1.6-3.6-.6-2 1.7-1.9 2.3 1 6.6 6.1 9 .5 19.4-10.6 19.4-3.3 0-4.7-.6-7.5-3.4-4.4-4.4-4.7-10.4-.8-16.2 1.9-2.7 2.4-4.3 1.7-5.3-1.5-2.4-2.8-2.3-5.5.6zm26.4 3.5c3.3 4.6 3.2 13.1-.2 18-4.4 6.5-13.3 8.7-20.6 5.2-4.3-2.1-8.4-8.8-8.4-13.7 0-4.6 2.8-11.7 4.6-11.7 1.8 0 1.8 1.4-.1 3-.8.7-2 2.9-2.6 4.9-1 3.2-.8 4.4 1 8.5 4.7 10.2 16.7 11.8 24.4 3.2 3.6-4 3.5-13-.2-17-2.3-2.4-2.6-3.6-1.2-3.6.5 0 2 1.4 3.3 3.2zM169.2 179.3l-6.2 2.9V202l6.6 3c8.3 3.7 9.4 3.8 9.4.2v-2.7l8 .3 8 .4V197h-16v-10h16v-5.5l-8 .3-8 .4v-2.9c0-3.7-1.8-3.7-9.8 0zm7.8 1.1c0 .7.7 1.9 1.5 2.6 1.4 1.2 1.4 1.5 0 3-1.8 2-2 10.1-.3 11.8.7.7 4.1 1.3 7.8 1.4l6.5.2-6.9.5c-6.6.6-7.8 1.2-9.2 4.9-.1.1-2.6-.7-5.8-1.9l-5.6-2.2v-17.4l4.8-2.1c5.6-2.5 7.2-2.7 7.2-.8z"/></svg>