<svg aria-hidden="true" style="position: absolute; width: 0; height: 0; overflow: hidden;" version="1.1" xmlns="http://www.w3.org/2000/svg" xmlns:xlink="http://www.w3.org/1999/xlink">
<defs>
<symbol id="icon-logo" viewBox="0 0 32 32">
<path d="M15.076 3.925c-0.427 0.284-0.839 0.569-0.896 0.626-0.128 0.114 0.171 0.711 0.356 0.711 0.071 0 0.427-0.228 0.811-0.498 0.37-0.27 0.782-0.498 0.896-0.498s3.214 2.105 6.884 4.665c6.215 4.352 6.67 4.708 6.713 5.12l0.043 0.455h-1.109c-0.683 0-1.195 0.071-1.294 0.171-0.128 0.128-0.171 1.166-0.171 3.769v3.598h-5.973v0.853h3.172c2.901 0 3.2-0.028 3.413-0.256s0.242-0.711 0.242-3.769v-3.513h1.124c1.365 0 1.465-0.085 1.408-1.294l-0.043-0.896-6.969-4.878c-5.433-3.797-7.054-4.878-7.396-4.878-0.256 0-0.74 0.213-1.209 0.512zM17.294 4.153c0.384 0.256 0.768 0.512 0.839 0.583 0.085 0.057 0.754 0.54 1.493 1.052 0.74 0.526 1.38 0.996 1.394 1.067 0.028 0.057 0.114 0.114 0.171 0.114 0.071 0 0.782 0.469 1.579 1.024 0.796 0.569 1.906 1.351 2.46 1.735s1.038 0.754 1.052 0.811c0.028 0.071 0.114 0.128 0.199 0.128s0.782 0.469 1.564 1.024c0.782 0.569 1.536 1.109 1.678 1.18 0.597 0.341 0.668 0.484 0.654 1.308l-0.014 0.825-1.095 0.043c-0.683 0.028-1.138 0.114-1.237 0.228-0.142 0.171-0.242 2.546-0.299 6.869v0.469h-3.058c-1.948 0-3.058-0.057-3.058-0.142s1.038-0.142 2.83-0.142c2.176 0 2.859-0.043 2.987-0.185 0.1-0.128 0.171-1.408 0.185-3.74l0.043-3.541 1.038-0.014c1.166-0.028 1.465-0.199 1.422-0.796-0.043-0.455-0.327-0.825-0.967-1.195-0.228-0.142-0.427-0.313-0.427-0.37s-0.085-0.114-0.199-0.114c-0.114 0-0.228-0.057-0.256-0.114-0.014-0.071-0.398-0.356-0.825-0.64s-1.038-0.697-1.351-0.924c-0.469-0.341-2.020-1.436-4.964-3.484-0.242-0.171-0.469-0.341-0.512-0.398-0.043-0.043-0.327-0.228-0.64-0.412s-0.597-0.384-0.64-0.427c-0.043-0.057-0.469-0.37-0.953-0.697-0.498-0.341-0.896-0.668-0.896-0.74s-0.043-0.114-0.1-0.1c-0.071 0.014-0.313-0.071-0.555-0.213-0.484-0.256-0.953-0.228-1.323 0.085-0.128 0.1-0.398 0.299-0.612 0.427-0.327 0.199-0.398 0.213-0.398 0.043 0-0.199 0.811-0.782 1.351-0.953 0.526-0.185 0.725-0.128 1.436 0.327zM8.875 4.551c-1.081 0.356-1.934 1.138-2.432 2.233-0.299 0.654-0.356 0.939-0.299 1.792 0.028 0.64 0.156 1.237 0.327 1.593 0.27 0.54 0.327 0.569 0.981 0.612l0.697 0.043-0.37-0.427c-0.512-0.612-0.711-1.337-0.64-2.29 0.071-0.996 0.484-1.678 1.365-2.276 1.877-1.252 4.395-0.128 4.793 2.148 0.128 0.697-0.185 1.806-0.668 2.347l-0.427 0.484h1.408l0.341-0.74c0.441-0.939 0.455-2.304 0.028-3.257-0.882-1.977-3.044-2.944-5.106-2.261zM11.762 4.992c0.796 0.356 1.692 1.308 1.948 2.091 0.412 1.18 0.199 3.015-0.37 3.314-0.313 0.171-0.313 0.156 0.028-0.654 1.223-2.873-1.906-5.845-4.636-4.395-0.924 0.484-1.266 0.811-1.636 1.607-0.398 0.853-0.398 2.19 0 2.987 0.27 0.512 0.27 0.555 0.043 0.526-0.171-0.028-0.327-0.327-0.526-0.996-0.27-0.939-0.27-0.981-0.014-1.977 0.284-1.152 0.626-1.593 1.735-2.318 1.038-0.668 2.19-0.725 3.428-0.185zM3.413 11.932l-1.778 1.252-0.043 0.882c-0.057 1.209 0.043 1.294 1.408 1.294h1.124v5.945c0 5.589 0.014 5.973 0.256 6.187s1.095 0.242 9.244 0.242h8.988v-0.853h-17.636v-6.016c0-4.494-0.043-6.059-0.171-6.187-0.1-0.1-0.612-0.171-1.294-0.171h-1.109l0.043-0.455c0.043-0.398 0.228-0.583 1.707-1.579 1.636-1.124 1.65-1.138 1.436-1.479-0.114-0.171-0.256-0.327-0.313-0.327-0.043 0-0.882 0.569-1.863 1.266zM5.262 11.236c-0.114 0.071-0.156 0.142-0.071 0.142 0.071 0-0.199 0.228-0.626 0.498-0.412 0.27-0.796 0.498-0.868 0.498s-0.142 0.057-0.171 0.114c-0.014 0.071-0.341 0.327-0.711 0.583-0.583 0.384-0.683 0.526-0.683 0.924 0 0.668 0.27 0.825 1.465 0.853l1.024 0.014 0.043 5.988c0.028 4.949 0.071 6.030 0.228 6.158s2.432 0.171 8.747 0.156c5.788 0 8.548 0.043 8.548 0.142s-2.844 0.128-8.86 0.114l-8.846-0.043-0.043-5.959c-0.014-3.996-0.085-6.016-0.185-6.144-0.1-0.114-0.569-0.199-1.237-0.228l-1.095-0.043-0.085-1.621 0.683-0.498c0.37-0.27 0.839-0.583 1.038-0.683s0.384-0.228 0.427-0.27c0.156-0.199 1.18-0.839 1.337-0.839 0.085 0 0.057 0.071-0.057 0.142z"></path>
<path d="M7.893 12.501c0.484 0.668 0.498 0.725 0.498 2.062v1.365h3.556v-1.323c0-1.266 0.014-1.337 0.498-2.062l0.512-0.74h-5.561l0.498 0.697zM12.288 12.26c-0.057 0.1-0.228 0.356-0.37 0.569-0.199 0.284-0.256 0.64-0.256 1.593v1.237l-2.916-0.085-0.071-1.28c-0.057-0.896-0.142-1.38-0.313-1.636-0.142-0.185-0.256-0.398-0.256-0.455 0-0.071 0.967-0.114 2.148-0.114 1.664 0 2.119 0.043 2.034 0.171zM8.718 17.351l0.313 0.711h1.152c0.796 0 1.18-0.057 1.237-0.185 0.043-0.085 0.171-0.412 0.299-0.711l0.228-0.526h-3.541l0.313 0.711zM11.321 17.337c-0.213 0.398-0.242 0.412-1.109 0.341-0.924-0.071-1.252-0.213-1.252-0.555 0-0.156 0.284-0.199 1.28-0.199h1.294l-0.213 0.412zM17.707 18.802c-0.043 0.114-0.057 0.967-0.043 1.906l0.043 1.692h0.711v-1.849c0-1.806 0-1.849-0.327-1.892-0.171-0.028-0.341 0.043-0.384 0.142zM18.19 20.551c0 0.825-0.071 1.493-0.142 1.493s-0.128-0.668-0.128-1.493c0-0.91 0.057-1.493 0.142-1.493s0.142 0.569 0.128 1.493zM9.671 20.665c0 1.28 0.057 1.948 0.171 2.062s0.896 0.171 2.56 0.171h2.389v-0.853h-4.267v-3.271h-0.853v1.892zM10.24 20.523c0 0.953 0.057 1.522 0.171 1.636s0.782 0.171 2.048 0.171c1.138 0 1.92 0.057 1.977 0.142 0.057 0.1-0.64 0.142-2.162 0.114l-2.247-0.043-0.043-1.749c-0.028-1.124 0.014-1.735 0.114-1.735 0.085 0 0.142 0.555 0.142 1.465z"></path>
<path d="M16.185 20.295c-1.508 1.579-0.384 4.309 1.764 4.309 1.579 0 2.674-1.067 2.674-2.574 0-0.626-0.37-1.479-0.839-1.892-0.242-0.213-0.327-0.228-0.512-0.085-0.284 0.242-0.27 0.327 0.142 0.939 0.868 1.28 0.071 2.759-1.508 2.759-0.469 0-0.668-0.085-1.067-0.484-0.626-0.626-0.668-1.479-0.114-2.304 0.27-0.384 0.341-0.612 0.242-0.754-0.213-0.341-0.398-0.327-0.782 0.085zM19.94 20.793c0.469 0.654 0.455 1.863-0.028 2.56-0.626 0.924-1.892 1.237-2.93 0.74-0.612-0.299-1.195-1.252-1.195-1.948 0-0.654 0.398-1.664 0.654-1.664s0.256 0.199-0.014 0.427c-0.114 0.1-0.284 0.412-0.37 0.697-0.142 0.455-0.114 0.626 0.142 1.209 0.668 1.451 2.375 1.678 3.47 0.455 0.512-0.569 0.498-1.849-0.028-2.418-0.327-0.341-0.37-0.512-0.171-0.512 0.071 0 0.284 0.199 0.469 0.455zM24.064 25.5l-0.882 0.412v2.816l0.939 0.427c1.18 0.526 1.337 0.54 1.337 0.028v-0.384l1.138 0.043 1.138 0.057v-0.882h-2.276v-1.422h2.276v-0.782l-1.138 0.043-1.138 0.057v-0.412c0-0.526-0.256-0.526-1.394 0zM25.173 25.657c0 0.1 0.1 0.27 0.213 0.37 0.199 0.171 0.199 0.213 0 0.427-0.256 0.284-0.284 1.436-0.043 1.678 0.1 0.1 0.583 0.185 1.109 0.199l0.924 0.028-0.981 0.071c-0.939 0.085-1.109 0.171-1.308 0.697-0.014 0.014-0.37-0.1-0.825-0.27l-0.796-0.313v-2.475l0.683-0.299c0.796-0.356 1.024-0.384 1.024-0.114z"></path>
</symbol>
<symbol id="icon-menu" viewBox="0 0 32 32">
<path  d="M1 10h30c0.552 0 1-0.448 1-1s-0.448-1-1-1h-30c-0.552 0-1 0.448-1 1s0.448 1 1 1zM31 15h-30c-0.552 0-1 0.448-1 1s0.448 1 1 1h30c0.552 0 1-0.448 1-1s-0.448-1-1-1zM31 22h-20c-0.552 0-1 0.448-1 1s0.448 1 1 1h20c0.552 0 1-0.448 1-1s-0.448-1-1-1z"></path>
</symbol>
<symbol id="icon-viber" viewBox="0 0 32 32">
<path fill="#665cac" style="fill: var(--color1, #665cac)" d="M19.207 0.501h-6.414c-5.904 0-10.69 4.786-10.69 10.69v4.811c0 4.384 2.639 8.15 6.414 9.8v5.701l4.811-4.811h5.88c5.904 0 10.69-4.786 10.69-10.69v-4.811c0-5.904-4.786-10.69-10.69-10.69z"></path>
<path fill="#523494" style="fill: var(--color2, #523494)" d="M10.655 29.365v-3.563c-3.775-1.65-6.414-5.416-6.414-9.8v-4.811c0-5.904 4.786-10.69 10.69-10.69h-2.138c-5.904 0-10.69 4.786-10.69 10.69v4.811c0 4.384 2.639 8.15 6.414 9.8v5.701l2.138-2.138z"></path>
<path fill="#fff" style="fill: var(--color3, #fff)" d="M23.064 17.383l-3.78-0.756-1.793 1.793c-3.033-1.285-4.637-2.889-6.047-6.047l1.793-1.793-0.756-3.78-2.603-0.481c-0.612 0.142-1.14 0.443-1.554 0.859l-0 0c-0.863 0.863-0.982 2.061-0.805 3.187 0.401 2.547 1.641 5.955 3.814 8.136 0.005 0.005 0.010 0.011 0.016 0.016s0.011 0.010 0.016 0.016c2.181 2.173 5.589 3.413 8.136 3.814 1.126 0.177 2.324 0.057 3.187-0.805 0.415-0.414 0.717-0.942 0.854-1.533l0.004-0.022-0.481-2.603z"></path>
<path fill="#e5e5e5" style="fill: var(--color4, #e5e5e5)" d="M20.507 21.338c-2.547-0.401-5.955-1.641-8.136-3.814-0.005-0.005-0.011-0.010-0.016-0.016s-0.010-0.011-0.016-0.016c-2.173-2.181-3.413-5.589-3.813-8.136-0.142-0.903-0.093-1.851 0.376-2.636-0.219 0.136-0.408 0.287-0.579 0.458l0-0c-0.863 0.863-0.982 2.061-0.805 3.187 0.401 2.547 1.641 5.955 3.814 8.136 0.005 0.005 0.010 0.011 0.016 0.016s0.011 0.010 0.016 0.016c2.181 2.173 5.589 3.413 8.136 3.814 1.126 0.177 2.324 0.057 3.187-0.805 0.17-0.171 0.321-0.36 0.45-0.566l0.008-0.013c-0.785 0.469-1.734 0.518-2.636 0.377z"></path>
<path fill="#000" style="fill: var(--color5, #000)" d="M27.2 3.358c-0.194-0.198-0.511-0.201-0.709-0.007-0.093 0.091-0.15 0.218-0.15 0.358 0 0.137 0.055 0.26 0.143 0.351l-0-0c1.878 1.916 2.912 4.449 2.912 7.132v4.811c0 5.618-4.571 10.189-10.189 10.189h-5.88c-0.138 0-0.264 0.056-0.354 0.147v0l-3.955 3.955v-4.491c-0-0.204-0.122-0.38-0.297-0.458l-0.003-0.001c-3.714-1.623-6.114-5.289-6.114-9.341v-4.811c0-5.618 4.571-10.189 10.189-10.189h6.414c2.002 0 3.94 0.58 5.604 1.678 0.078 0.053 0.175 0.085 0.279 0.085 0.277 0 0.501-0.224 0.501-0.501 0-0.175-0.090-0.33-0.227-0.419l-0.002-0.001c-1.828-1.206-3.957-1.844-6.156-1.844h-6.414c-6.171 0-11.191 5.021-11.191 11.191v4.811c0 4.339 2.507 8.277 6.414 10.123v5.378c0 0.436 0.546 0.664 0.855 0.354l4.664-4.664h5.672c6.171 0 11.191-5.021 11.191-11.191v-4.811c-0-2.947-1.136-5.729-3.199-7.834z"></path>
<path fill="#000" style="fill: var(--color5, #000)" d="M19.577 21.851c-2.395-0.377-5.718-1.54-7.86-3.673l-0.031-0.031c-0.985-0.989-1.863-2.353-2.539-3.945-0.078-0.182-0.255-0.308-0.462-0.308-0.277 0-0.501 0.224-0.501 0.501 0 0.072 0.015 0.14 0.042 0.202l-0.001-0.003c0.726 1.708 1.677 3.182 2.753 4.263l0.031 0.031c2.312 2.303 5.861 3.552 8.412 3.954 0.32 0.050 0.628 0.075 0.924 0.075 1.099 0 2.020-0.346 2.695-1.021 0.48-0.479 0.829-1.090 0.988-1.773l0.005-0.025c0.008-0.033 0.012-0.072 0.012-0.111 0-0.032-0.003-0.064-0.009-0.094l0 0.003-0.481-2.603c-0.038-0.202-0.193-0.359-0.391-0.4l-0.003-0.001-3.78-0.756c-0.029-0.006-0.063-0.010-0.098-0.010-0.138 0-0.264 0.056-0.355 0.147l-1.552 1.552c-2.616-1.168-4.061-2.616-5.334-5.343l1.547-1.547c0.091-0.091 0.147-0.216 0.147-0.355 0-0.035-0.004-0.069-0.010-0.101l0.001 0.003-0.756-3.78c-0.041-0.201-0.198-0.356-0.397-0.394l-0.003-0-2.603-0.481c-0.027-0.005-0.059-0.008-0.091-0.008-0.039 0-0.078 0.005-0.114 0.013l0.003-0.001c-0.708 0.164-1.318 0.513-1.798 0.993l-0 0c-0.857 0.857-1.184 2.108-0.946 3.619 0.108 0.688 0.269 1.401 0.478 2.118 0.077 0.266 0.356 0.418 0.621 0.341 0.21-0.063 0.361-0.254 0.361-0.481 0-0.050-0.007-0.098-0.021-0.144l0.001 0.004c-0.197-0.677-0.349-1.348-0.45-1.994-0.189-1.198 0.035-2.125 0.665-2.755 0.327-0.327 0.737-0.571 1.196-0.696l0.019-0.004 2.164 0.399 0.637 3.184-1.604 1.603c-0.091 0.091-0.147 0.216-0.147 0.354 0 0.074 0.016 0.144 0.045 0.207l-0.001-0.003c1.458 3.264 3.168 4.973 6.309 6.304 0.058 0.025 0.125 0.040 0.196 0.040 0.138 0 0.264-0.056 0.354-0.147l1.603-1.604 3.184 0.637 0.399 2.163c-0.13 0.478-0.373 0.888-0.7 1.215l-0 0c-0.63 0.63-1.556 0.853-2.755 0.665zM17.069 9.087c-0.277 0-0.501 0.224-0.501 0.501s0.224 0.501 0.501 0.501c1.197 0 2.171 0.974 2.171 2.171 0 0.273 0.228 0.501 0.501 0.501s0.501-0.228 0.501-0.501c0-1.75-1.424-3.174-3.174-3.174z"></path>
<path fill="#000" style="fill: var(--color5, #000)" d="M21.795 13.293c0.271 0.029 0.523-0.171 0.553-0.443 0.021-0.195 0.032-0.393 0.032-0.59 0-2.929-2.383-5.312-5.312-5.312-0.197 0-0.395 0.011-0.59 0.032-0.252 0.029-0.446 0.241-0.446 0.498 0 0.019 0.001 0.038 0.003 0.057l-0-0.002c0.030 0.275 0.278 0.473 0.553 0.443 0.144-0.017 0.311-0.026 0.479-0.026h0c2.376 0 4.309 1.933 4.309 4.309 0 0.16-0.009 0.321-0.026 0.48-0.030 0.275 0.168 0.523 0.443 0.553z"></path>
<path fill="#000" style="fill: var(--color5, #000)" d="M24.319 13.979c0.127-0.515 0.199-1.107 0.199-1.716 0-0.001 0-0.002 0-0.003v0c0-4.108-3.342-7.45-7.45-7.45-0.19 0-0.383 0.007-0.572 0.022-0.26 0.020-0.463 0.236-0.463 0.5 0 0.013 0.001 0.027 0.002 0.040l-0-0.002c0.020 0.26 0.236 0.463 0.499 0.463 0.014 0 0.027-0.001 0.040-0.002l-0.002 0c0.164-0.013 0.332-0.019 0.497-0.019 3.555 0 6.448 2.892 6.448 6.448 0 0.503-0.058 1.004-0.172 1.488-0.062 0.262 0.102 0.533 0.363 0.601 0.268 0.069 0.549-0.101 0.612-0.37z"></path>
</symbol>
<symbol id="icon-email" viewBox="0 0 32 32">
<path fill="#d80027" style="fill: var(--color1, #d80027)" d="M26.928 16.216v0l-7.415 7.003 10.537 8.78v-18.732z"></path>
<path fill="#ff5023" style="fill: var(--color2, #ff5023)" d="M1.951 13.268v18.732l10.537-8.78z"></path>
<path fill="#d80027" style="fill: var(--color1, #d80027)" d="M12.488 23.22l-10.537 8.78h14.049v-5.463z"></path>
<path fill="#a2001d" style="fill: var(--color3, #a2001d)" d="M16 26.537v5.463h14.049l-10.537-8.78z"></path>
<path fill="#ff5023" style="fill: var(--color2, #ff5023)" d="M5.073 10.32l-3.121 2.948h3.121zM30.049 13.268l-3.122-2.948 0 2.948zM16 0l-4.979 4.702 9.944-0.012z"></path>
<path fill="#a2001d" style="fill: var(--color3, #a2001d)" d="M26.928 16.216l3.121-2.948h-3.121zM16 26.537l-10.928-10.321 0-2.947h-3.121l10.537 9.951z"></path>
<path fill="#dedde0" style="fill: var(--color4, #dedde0)" d="M5.072 16.216l10.928 10.321 10.928-10.32-0-2.948-0-2.948-0-5.637-21.854 0.026-0.001 5.611-0 2.948-0 2.947zM8.976 14.049h14.049v2.341h-14.049v-2.341zM8.976 11.707v-2.341h14.049v2.341h-14.049z"></path>
<path fill="#fff" style="fill: var(--color5, #fff)" d="M8.976 9.366h14.049v2.341h-14.049zM8.976 14.049h14.049v2.341h-14.049z"></path>
</symbol>
<symbol id="icon-close" viewBox="0 0 32 32">
<path d="M16 26.88c-6.016 0-10.88-4.864-10.88-10.88s4.864-10.88 10.88-10.88 10.88 4.864 10.88 10.88-4.864 10.88-10.88 10.88zM16 6.4c-5.312 0-9.6 4.288-9.6 9.6s4.288 9.6 9.6 9.6 9.6-4.288 9.6-9.6-4.288-9.6-9.6-9.6z"></path>
<path d="M20.661 10.433l0.905 0.906-10.227 10.227-0.905-0.905z"></path>
<path d="M11.339 10.433l10.227 10.227-0.905 0.906-10.227-10.227z"></path>
</symbol>
<symbol id="icon-telegram" viewBox="0 0 32 32">
<path fill="#47b0d3" style="fill: var(--color1, #47b0d3)" d="M31.499 16c0 8.56-6.939 15.499-15.499 15.499s-15.499-6.939-15.499-15.499c0-8.56 6.939-15.499 15.499-15.499s15.499 6.939 15.499 15.499z"></path>
<path fill="#3298ba" style="fill: var(--color2, #3298ba)" d="M18.138 30.965c-8.56 0-15.499-6.939-15.499-15.499 0-6.875 4.476-12.703 10.672-14.732-7.278 1.273-12.81 7.623-12.81 15.266 0 8.56 6.939 15.499 15.499 15.499 1.685 0 3.307-0.27 4.826-0.767-0.808 0.148-1.737 0.233-2.686 0.233-0.001 0-0.002 0-0.003 0h0z"></path>
<path fill="#b2b2b2" style="fill: var(--color3, #b2b2b2)" d="M11.79 25.086l-1.231-7.385 12.924-10.462z"></path>
<path fill="#ccc" style="fill: var(--color4, #ccc)" d="M13.328 18.624l-1.538 6.462 11.693-17.847z"></path>
<path fill="#e5e5e5" style="fill: var(--color5, #e5e5e5)" d="M13.328 18.624l10.154-11.385-0.897 15.241c-0.013 0.217-0.24 0.353-0.437 0.261l-8.82-4.116z"></path>
<path fill="#e5e5e5" style="fill: var(--color5, #e5e5e5)" d="M23.482 7.239l-17.229 8.020c-0.24 0.112-0.236 0.455 0.007 0.561l4.299 1.881 12.924-10.462z"></path>
<path fill="#000" style="fill: var(--color6, #000)" d="M30.664 9.59c-0.856-1.956-2.077-3.697-3.63-5.176-0.090-0.086-0.212-0.138-0.346-0.138-0.143 0-0.271 0.060-0.363 0.155l-0 0c-0.086 0.090-0.138 0.212-0.138 0.346 0 0.143 0.060 0.271 0.155 0.363l0 0c3.002 2.859 4.655 6.716 4.655 10.861 0 8.27-6.728 14.998-14.998 14.998s-14.998-6.728-14.998-14.998 6.728-14.998 14.998-14.998c3.021 0 5.933 0.894 8.421 2.586 0.078 0.052 0.174 0.083 0.277 0.083 0.277 0 0.501-0.224 0.501-0.501 0-0.169-0.084-0.319-0.213-0.41l-0.002-0.001c-2.655-1.805-5.762-2.759-8.985-2.759-4.274 0-8.292 1.664-11.314 4.686s-4.686 7.040-4.686 11.314 1.664 8.292 4.686 11.314c3.022 3.022 7.040 4.686 11.314 4.686s8.292-1.664 11.314-4.686c3.022-3.022 4.686-7.040 4.686-11.314 0-2.228-0.449-4.385-1.336-6.41z"></path>
<path fill="#000" style="fill: var(--color6, #000)" d="M23.983 7.225c-0.010-0.355-0.391-0.589-0.712-0.441l-9.636 4.486c-0.172 0.082-0.29 0.254-0.29 0.454 0 0.077 0.017 0.149 0.048 0.215l-0.001-0.003c0.117 0.251 0.415 0.36 0.666 0.243l5.944-2.767-9.521 7.708-3.627-1.587 5.083-2.366c0.251-0.117 0.36-0.415 0.243-0.666s-0.415-0.36-0.666-0.243l-5.471 2.547c-0.278 0.132-0.467 0.411-0.467 0.734 0 0.006 0 0.013 0 0.019l-0-0.001c0.008 0.322 0.202 0.596 0.479 0.72l0.005 0.002 4.050 1.772 1.186 7.117c0.073 0.44 0.669 0.565 0.913 0.192l3.365-5.136 6.363 2.97c0.51 0.238 1.116-0.126 1.149-0.685l0.896-15.241c0.001-0.014 0.001-0.029 0.001-0.043zM15.211 18.949l-1.060-0.495 5.217-5.849-4.156 6.344zM13.673 19.338l0.983 0.459-1.715 2.618 0.733-3.077zM18.999 11.513l-6.045 6.778c-0.053 0.060-0.093 0.133-0.113 0.214l-0.001 0.003-0.964 4.050-0.775-4.652 7.898-6.394zM22.102 22.166l-5.974-2.788 6.744-10.293-0.769 13.081z"></path>
</symbol>
<symbol id="icon-form" viewBox="0 0 32 32">
<path fill="#FFBB00" style="fill: var(--color1, #FFBB00)" d="M28.8 3.84h-1.92v-1.28c0-0.707-0.573-1.28-1.28-1.28v0h-1.28c-0.707 0-1.28 0.573-1.28 1.28v0 1.28h-5.12v-1.28c0-0.707-0.573-1.28-1.28-1.28v0h-1.28c-0.707 0-1.28 0.573-1.28 1.28v0 1.28h-5.12v-1.28c0-0.707-0.573-1.28-1.28-1.28v0h-1.28c-0.707 0-1.28 0.573-1.28 1.28v0 1.28h-1.92c-1.060 0-1.92 0.86-1.92 1.92v0 23.040c0 1.060 0.86 1.92 1.92 1.92v0h25.6c1.060 0 1.92-0.86 1.92-1.92v0-23.040c0-1.060-0.86-1.92-1.92-1.92v0zM24.32 2.56h1.28v3.84h-1.28zM15.36 2.56h1.28v3.84h-1.28zM6.4 2.56h1.28v3.84h-1.28zM3.2 5.12h1.92v1.28c0 0.707 0.573 1.28 1.28 1.28v0h1.28c0.707 0 1.28-0.573 1.28-1.28v0-1.28h5.12v1.28c0 0.707 0.573 1.28 1.28 1.28v0h1.28c0.707 0 1.28-0.573 1.28-1.28v0-1.28h5.12v1.28c0 0.707 0.573 1.28 1.28 1.28v0h1.28c0.707 0 1.28-0.573 1.28-1.28v0-1.28h1.92c0.353 0 0.64 0.287 0.64 0.64v0 4.48h-26.88v-4.48c0-0.353 0.287-0.64 0.64-0.64v0zM28.8 29.44h-25.6c-0.353 0-0.64-0.287-0.64-0.64v0-17.28h26.88v17.28c0 0.353-0.287 0.64-0.64 0.64v0z"></path>
<path fill="#FFBB00" style="fill: var(--color1, #FFBB00)" d="M20.48 19.84h-3.84v-3.84c0-0.353-0.287-0.64-0.64-0.64s-0.64 0.287-0.64 0.64v0 3.84h-3.84c-0.353 0-0.64 0.287-0.64 0.64s0.287 0.64 0.64 0.64v0h3.84v3.84c0 0.353 0.287 0.64 0.64 0.64s0.64-0.287 0.64-0.64v0-3.84h3.84c0.353 0 0.64-0.287 0.64-0.64s-0.287-0.64-0.64-0.64v0z"></path>
</symbol>

<symbol id="icon-calendar" viewBox="0 0 32 32">
<path fill="#FFBB00" style="fill: var(--color1, #FFBB00)" d="M28.8 3.84h-1.92v-1.28c0-0.707-0.573-1.28-1.28-1.28v0h-1.28c-0.707 0-1.28 0.573-1.28 1.28v0 1.28h-5.12v-1.28c0-0.707-0.573-1.28-1.28-1.28v0h-1.28c-0.707 0-1.28 0.573-1.28 1.28v0 1.28h-5.12v-1.28c0-0.707-0.573-1.28-1.28-1.28v0h-1.28c-0.707 0-1.28 0.573-1.28 1.28v0 1.28h-1.92c-1.060 0-1.92 0.86-1.92 1.92v0 23.040c0 1.060 0.86 1.92 1.92 1.92v0h25.6c1.060 0 1.92-0.86 1.92-1.92v0-23.040c0-1.060-0.86-1.92-1.92-1.92v0zM24.32 2.56h1.28v3.84h-1.28zM15.36 2.56h1.28v3.84h-1.28zM6.4 2.56h1.28v3.84h-1.28zM3.2 5.12h1.92v1.28c0 0.707 0.573 1.28 1.28 1.28v0h1.28c0.707 0 1.28-0.573 1.28-1.28v0-1.28h5.12v1.28c0 0.707 0.573 1.28 1.28 1.28v0h1.28c0.707 0 1.28-0.573 1.28-1.28v0-1.28h5.12v1.28c0 0.707 0.573 1.28 1.28 1.28v0h1.28c0.707 0 1.28-0.573 1.28-1.28v0-1.28h1.92c0.353 0 0.64 0.287 0.64 0.64v0 4.48h-26.88v-4.48c0-0.353 0.287-0.64 0.64-0.64v0zM28.8 29.44h-25.6c-0.353 0-0.64-0.287-0.64-0.64v0-17.28h26.88v17.28c0 0.353-0.287 0.64-0.64 0.64v0z"></path>
<path fill="#FFBB00" style="fill: var(--color1, #FFBB00)" d="M26.24 19.2h-7.68c-0.353 0-0.64 0.287-0.64 0.64v0 6.4c0 0.353 0.287 0.64 0.64 0.64v0h7.68c0.353 0 0.64-0.287 0.64-0.64v0-6.4c0-0.353-0.287-0.64-0.64-0.64v0zM25.6 25.6h-6.4v-5.12h6.4zM8.32 14.080h-2.56c-0.353 0-0.64 0.287-0.64 0.64v0 2.56c0 0.353 0.287 0.64 0.64 0.64v0h2.56c0.353 0 0.64-0.287 0.64-0.64v0-2.56c0-0.353-0.287-0.64-0.64-0.64v0zM7.68 16.64h-1.28v-1.28h1.28zM13.44 14.080h-2.56c-0.353 0-0.64 0.287-0.64 0.64v0 2.56c0 0.353 0.287 0.64 0.64 0.64v0h2.56c0.353 0 0.64-0.287 0.64-0.64v0-2.56c0-0.353-0.287-0.64-0.64-0.64v0zM12.8 16.64h-1.28v-1.28h1.28zM8.32 20.48h-2.56c-0.353 0-0.64 0.287-0.64 0.64v0 2.56c0 0.353 0.287 0.64 0.64 0.64v0h2.56c0.353 0 0.64-0.287 0.64-0.64v0-2.56c0-0.353-0.287-0.64-0.64-0.64v0zM7.68 23.040h-1.28v-1.28h1.28zM13.44 20.48h-2.56c-0.353 0-0.64 0.287-0.64 0.64v0 2.56c0 0.353 0.287 0.64 0.64 0.64v0h2.56c0.353 0 0.64-0.287 0.64-0.64v0-2.56c0-0.353-0.287-0.64-0.64-0.64v0zM12.8 23.040h-1.28v-1.28h1.28zM18.56 17.92h2.56c0.353 0 0.64-0.287 0.64-0.64v0-2.56c0-0.353-0.287-0.64-0.64-0.64v0h-2.56c-0.353 0-0.64 0.287-0.64 0.64v0 2.56c0 0.353 0.287 0.64 0.64 0.64v0zM19.2 15.36h1.28v1.28h-1.28zM26.24 14.080h-2.56c-0.353 0-0.64 0.287-0.64 0.64v0 2.56c0 0.353 0.287 0.64 0.64 0.64v0h2.56c0.353 0 0.64-0.287 0.64-0.64v0-2.56c0-0.353-0.287-0.64-0.64-0.64v0zM25.6 16.64h-1.28v-1.28h1.28z"></path>
</symbol>
<symbol id="icon-contract" viewBox="0 0 32 32">
<path fill="#FFBB00" style="fill: var(--color1, #FFBB00)" d="M28.8 3.84h-1.92v-1.28c0-0.707-0.573-1.28-1.28-1.28v0h-1.28c-0.707 0-1.28 0.573-1.28 1.28v0 1.28h-5.12v-1.28c0-0.707-0.573-1.28-1.28-1.28v0h-1.28c-0.707 0-1.28 0.573-1.28 1.28v0 1.28h-5.12v-1.28c0-0.707-0.573-1.28-1.28-1.28v0h-1.28c-0.707 0-1.28 0.573-1.28 1.28v0 1.28h-1.92c-1.060 0-1.92 0.86-1.92 1.92v0 23.040c0 1.060 0.86 1.92 1.92 1.92v0h25.6c1.060 0 1.92-0.86 1.92-1.92v0-23.040c0-1.060-0.86-1.92-1.92-1.92v0zM24.32 2.56h1.28v3.84h-1.28zM15.36 2.56h1.28v3.84h-1.28zM6.4 2.56h1.28v3.84h-1.28zM3.2 5.12h1.92v1.28c0 0.707 0.573 1.28 1.28 1.28v0h1.28c0.707 0 1.28-0.573 1.28-1.28v0-1.28h5.12v1.28c0 0.707 0.573 1.28 1.28 1.28v0h1.28c0.707 0 1.28-0.573 1.28-1.28v0-1.28h5.12v1.28c0 0.707 0.573 1.28 1.28 1.28v0h1.28c0.707 0 1.28-0.573 1.28-1.28v0-1.28h1.92c0.353 0 0.64 0.287 0.64 0.64v0 4.48h-26.88v-4.48c0-0.353 0.287-0.64 0.64-0.64v0zM28.8 29.44h-25.6c-0.353 0-0.64-0.287-0.64-0.64v0-17.28h26.88v17.28c0 0.353-0.287 0.64-0.64 0.64v0z"></path>
</symbol>
<symbol id="icon-certificate" viewBox="0 0 32 32">
<path fill="#FFBB00" style="fill: var(--color1, #FFBB00)" d="M28.8 3.84h-1.92v-1.28c0-0.707-0.573-1.28-1.28-1.28v0h-1.28c-0.707 0-1.28 0.573-1.28 1.28v0 1.28h-5.12v-1.28c0-0.707-0.573-1.28-1.28-1.28v0h-1.28c-0.707 0-1.28 0.573-1.28 1.28v0 1.28h-5.12v-1.28c0-0.707-0.573-1.28-1.28-1.28v0h-1.28c-0.707 0-1.28 0.573-1.28 1.28v0 1.28h-1.92c-1.060 0-1.92 0.86-1.92 1.92v0 23.040c0 1.060 0.86 1.92 1.92 1.92v0h25.6c1.060 0 1.92-0.86 1.92-1.92v0-23.040c0-1.060-0.86-1.92-1.92-1.92v0zM24.32 2.56h1.28v3.84h-1.28zM15.36 2.56h1.28v3.84h-1.28zM6.4 2.56h1.28v3.84h-1.28zM3.2 5.12h1.92v1.28c0 0.707 0.573 1.28 1.28 1.28v0h1.28c0.707 0 1.28-0.573 1.28-1.28v0-1.28h5.12v1.28c0 0.707 0.573 1.28 1.28 1.28v0h1.28c0.707 0 1.28-0.573 1.28-1.28v0-1.28h5.12v1.28c0 0.707 0.573 1.28 1.28 1.28v0h1.28c0.707 0 1.28-0.573 1.28-1.28v0-1.28h1.92c0.353 0 0.64 0.287 0.64 0.64v0 4.48h-26.88v-4.48c0-0.353 0.287-0.64 0.64-0.64v0zM28.8 29.44h-25.6c-0.353 0-0.64-0.287-0.64-0.64v0-17.28h26.88v17.28c0 0.353-0.287 0.64-0.64 0.64v0z"></path>
<path fill="#FFBB00" style="fill: var(--color1, #FFBB00)" d="M21.44 15.45c-0.092-0.056-0.204-0.090-0.323-0.090-0.234 0-0.437 0.128-0.545 0.317l-0.002 0.003-4.71 8.23-4.531-4.518c-0.115-0.115-0.273-0.186-0.448-0.186-0.35 0-0.634 0.284-0.634 0.634 0 0.175 0.071 0.333 0.186 0.448l5.12 5.12c0.11 0.118 0.267 0.192 0.441 0.192 0.003 0 0.005-0 0.008-0h0.089c0.199-0.032 0.365-0.151 0.459-0.317l0.002-0.003 5.12-8.96c0.056-0.092 0.090-0.204 0.090-0.323 0-0.234-0.128-0.437-0.317-0.545l-0.003-0.002z"></path>
<symbol id="icon-top" viewBox="0 0 32 32">
<path fill="#e5e5e5" style="fill: var(--color1, #e5e5e5)" d="M16 0c-8.836 0-16 7.163-16 16s7.163 16 16 16 16-7.163 16-16-7.163-16-16-16z"></path>
<path fill="#000" style="fill: var(--color2, #000)" d="M4 20.979h24v0.783h-24z"></path>
<path fill="#000" style="fill: var(--color2, #000)" d="M27.814 20.979h-23.814v0.788l1.191 1.099h21.433l1.191-1.099z"></path>
<path fill="#fff" style="fill: var(--color3, #fff)" d="M6.232 20.979v-12.912c0-0.309 0.251-0.561 0.558-0.561h18.233c0.307 0 0.558 0.253 0.558 0.561v12.912z"></path>
<path fill="#000" style="fill: var(--color2, #000)" d="M25.953 20.979h-0.744v-12.912c0-0.103-0.085-0.189-0.186-0.189h-18.233c-0.101 0-0.186 0.087-0.186 0.189v12.912h-0.744v-12.912c0-0.516 0.417-0.934 0.93-0.934h18.233c0.513 0 0.93 0.418 0.93 0.934l0 12.912z"></path>
<path fill="#f00000" style="fill: var(--color5, #f00000)" d="M21.256 10.917l-5.256-5.178-5.255 5.178h2.255v7.077h6v-7.077z"></path>
</symbol>
</symbol>
<symbol id="icon-phone-contacts" viewBox="0 0 32 32">
<path fill="#52c306" style="fill: var(--color1, #52c306)" d="M27.988 25.038c-1.012-1.913-4.746-4.102-4.746-4.102-0.845-0.482-1.864-0.535-2.346 0.323 0 0-1.213 1.455-1.522 1.664-1.41 0.955-2.715 0.918-4.033-0.4l-6.126-6.126c-1.318-1.318-1.355-2.624-0.4-4.033 0.209-0.309 1.664-1.522 1.664-1.522 0.858-0.482 0.805-1.501 0.323-2.346 0 0-2.188-3.734-4.102-4.746-0.284-0.154-0.622-0.244-0.981-0.244-0.579 0-1.104 0.235-1.483 0.615l-1.353 1.353c-4.291 4.291-2.178 9.136 2.113 13.427l7.844 7.844c4.291 4.291 9.136 6.404 13.427 2.113l1.353-1.353c0.379-0.38 0.613-0.904 0.613-1.483 0-0.359-0.090-0.698-0.249-0.993l0.006 0.011z"></path>
<path fill="#388f04" style="fill: var(--color2, #388f04)" d="M21.15 31.74c-0.562 0-1.135-0.068-1.72-0.203-2.204-0.509-4.549-1.995-6.97-4.417l-7.843-7.844c-5.33-5.329-6.061-10.232-2.113-14.18l1.353-1.353c0.474-0.478 1.132-0.774 1.858-0.774 0.452 0 0.876 0.114 1.247 0.316l-0.014-0.007c2.025 1.071 4.22 4.79 4.312 4.948 0.392 0.686 0.514 1.391 0.348 1.99-0.125 0.451-0.41 0.817-0.825 1.065-0.651 0.544-1.411 1.219-1.53 1.384-0.855 1.261-0.754 2.265 0.337 3.356l6.126 6.126c1.090 1.090 2.093 1.191 3.358 0.335 0.163-0.118 0.837-0.878 1.382-1.529 0.247-0.415 0.614-0.7 1.064-0.825 0.599-0.167 1.304-0.044 1.985 0.345 0.164 0.096 3.883 2.292 4.954 4.316 0.195 0.357 0.309 0.782 0.309 1.233 0 0.726-0.296 1.384-0.774 1.858l-1.353 1.353c-1.668 1.667-3.509 2.507-5.491 2.507zM5.716 4.037c-0.404 0-0.802 0.158-1.104 0.46l-1.353 1.353c-3.503 3.504-2.792 7.767 2.113 12.673l7.843 7.844c4.905 4.906 9.169 5.616 12.673 2.113l1.353-1.353c0.284-0.282 0.46-0.673 0.46-1.105 0-0.268-0.068-0.521-0.187-0.741l0.004 0.008c-0.772-1.459-3.543-3.304-4.545-3.891-0.414-0.236-0.853-0.325-1.165-0.24-0.192 0.054-0.338 0.173-0.446 0.365l-0.055 0.081c-0.379 0.455-1.298 1.537-1.632 1.764-1.68 1.138-3.264 0.982-4.71-0.464l-6.127-6.127c-1.446-1.446-1.603-3.031-0.465-4.71 0.227-0.334 1.309-1.253 1.764-1.633l0.080-0.055c0.192-0.108 0.311-0.254 0.365-0.446 0.087-0.314-0.004-0.752-0.244-1.171-0.018-0.030-2.131-3.61-3.888-4.539-0.213-0.115-0.465-0.182-0.734-0.183h-0z"></path>
<path fill="#388f04" style="fill: var(--color2, #388f04)" d="M21.333 25.872c-0.018 0-0.037-0.001-0.055-0.003-3.678-0.382-6.085-2.719-6.186-2.818-0.095-0.096-0.153-0.228-0.153-0.374 0-0.295 0.239-0.533 0.533-0.533 0.143 0 0.273 0.056 0.368 0.148l-0-0c0.022 0.021 2.255 2.174 5.548 2.516 0.267 0.032 0.471 0.257 0.471 0.53 0 0.292-0.234 0.529-0.525 0.534h-0zM9.598 17.338c-0 0-0 0-0 0-0.129 0-0.247-0.046-0.339-0.123l0.001 0.001c-0.122-0.1-3.007-2.515-3.392-6.223-0.002-0.016-0.003-0.035-0.003-0.055 0-0.275 0.208-0.502 0.476-0.531l0.002-0c0.016-0.002 0.034-0.003 0.053-0.003 0.276 0 0.503 0.208 0.533 0.476l0 0.002c0.339 3.264 2.983 5.489 3.009 5.511 0.118 0.099 0.192 0.246 0.192 0.411 0 0.295-0.239 0.534-0.533 0.534h-0z"></path>
<path fill="#efce4a" style="fill: var(--color3, #efce4a)" d="M14.594 0.26c-0.295 0-0.533 0.239-0.533 0.533s0.239 0.533 0.533 0.533v0c9.010 0 16.339 7.33 16.339 16.339 0 0.295 0.239 0.533 0.533 0.533s0.533-0.239 0.533-0.533v0c0-9.598-7.808-17.406-17.406-17.406z"></path>
<path fill="#efce4a" style="fill: var(--color3, #efce4a)" d="M14.594 4.009c-0.295 0-0.533 0.239-0.533 0.533s0.239 0.533 0.533 0.533v0c6.942 0 12.589 5.648 12.589 12.589 0 0.295 0.239 0.533 0.533 0.533s0.533-0.239 0.533-0.533v0c0.001-7.529-6.126-13.656-13.656-13.656z"></path>
<path fill="#efce4a" style="fill: var(--color3, #efce4a)" d="M14.594 7.759c-0.295 0-0.533 0.239-0.533 0.533s0.239 0.533 0.533 0.533v0c4.875 0 8.84 3.966 8.84 8.84 0 0.295 0.239 0.533 0.533 0.533s0.533-0.239 0.533-0.533v0c0-5.463-4.444-9.907-9.907-9.907z"></path>
</symbol>
<symbol id="icon-smartPhone" viewBox="0 0 32 32">
<path d="M22.387 0h-12.773c-1.112 0-2.017 0.905-2.017 2.017v27.966c0 1.112 0.905 2.017 2.017 2.017h12.773c1.112 0 2.017-0.905 2.017-2.017v-27.966c0-1.112-0.905-2.017-2.017-2.017zM22.387 31.193h-12.773c-0.601 0-1.098-0.443-1.191-1.019 0.29 0.565 0.872 0.955 1.549 0.955h12.057c0.677 0 1.259-0.391 1.549-0.955-0.093 0.577-0.589 1.019-1.191 1.019zM14.703 1.494c0.019 0.051 0.068 0.087 0.125 0.087 0 0 0 0 0 0h2.196c0.060 0 0.111-0.040 0.128-0.094l0-0.001 0.090-0.295c0.005-0.018-0.003-0.034-0.005-0.053h4.79c0.816 0 1.479 0.663 1.479 1.479v26.764c0 0.816-0.663 1.479-1.479 1.479h-12.056c-0.816 0-1.479-0.663-1.479-1.479v-26.763c0-0.816 0.663-1.479 1.479-1.479h4.621c-0.002 0.020-0.010 0.040-0.002 0.060l0.111 0.295zM14.855 1.139h2.122l-0.053 0.173h-2.004l-0.065-0.173zM22.028 0.87h-12.057c-0.677 0-1.259 0.391-1.549 0.955 0.093-0.576 0.589-1.019 1.191-1.019h12.773c0.601 0 1.098 0.443 1.191 1.019-0.29-0.564-0.872-0.955-1.549-0.955z"></path>
<path d="M9.008 3.429v23.328c0 0.111 0.090 0.202 0.202 0.202h13.412c0.111-0 0.202-0.090 0.202-0.202v0-23.328c-0-0.111-0.090-0.202-0.202-0.202h-13.412c-0.111 0-0.202 0.090-0.202 0.202v0zM9.412 3.63h13.009v22.924h-13.009v-22.924zM16.37 28.135h-0.773c-0.371 0-0.672 0.302-0.672 0.672v0.236c0 0.371 0.301 0.672 0.672 0.672h0.773c0.371 0 0.672-0.302 0.672-0.672v-0.236c0-0.371-0.302-0.672-0.672-0.672zM16.773 29.042c0 0.222-0.181 0.403-0.403 0.403h-0.773c-0.222 0-0.403-0.181-0.403-0.403v-0.236c0-0.222 0.181-0.403 0.403-0.403h0.773c0.222 0 0.403 0.181 0.403 0.403v0.236z"></path>
<path d="M19.608 2.006c0 0.217-0.176 0.392-0.392 0.392s-0.392-0.176-0.392-0.392c0-0.217 0.176-0.392 0.392-0.392s0.392 0.176 0.392 0.392z"></path>
<path d="M20.313 28.736h-0.269v-0.101l-0.29 0.167 0.29 0.168v-0.099h0.269c0.334 0 0.471 0.015 0.471 0.168 0 0.16-0.067 0.168-0.28 0.168h-0.347c-0.037 0-0.067 0.030-0.067 0.067s0.030 0.067 0.067 0.067h0.347c0.185 0 0.415 0 0.415-0.302s-0.308-0.303-0.605-0.303zM11.933 28.488h-0.656c-0.037 0-0.067 0.030-0.067 0.067v0.639c0 0.037 0.030 0.067 0.067 0.067h0.656c0.037 0 0.067-0.030 0.067-0.067v-0.639c0-0.037-0.030-0.067-0.067-0.067zM11.866 29.126h-0.521v-0.269h0.236v-0.236h0.286v0.504z"></path>
</symbol>
</defs>
</svg>
